<svg preserveAspectRatio="none" width="100%" height="100%" overflow="visible" style="display: block;" viewBox="0 0 362.479 420" fill="none" xmlns="http://www.w3.org/2000/svg">
<g id="Vector" filter="url(#filter0_d_22_5)">
<path d="M0 10.5455C0 4.72136 4.72136 0 10.5455 0H337.934C343.758 0 348.479 4.72136 348.479 10.5455V395.455C348.479 401.279 343.758 406 337.934 406H10.5455C4.72136 406 0 401.279 0 395.455V10.5455Z" fill="#FFEACD"/>
<path d="M38.2627 377.24V371.718H46.6378C49.0306 371.718 51.0553 371.242 52.7119 370.291C54.3992 369.31 55.6723 367.975 56.5313 366.288C57.421 364.6 57.8658 362.668 57.8658 360.49C57.8658 358.342 57.4363 356.456 56.5773 354.83C55.7183 353.204 54.4452 351.931 52.758 351.01C51.1014 350.09 49.0613 349.63 46.6378 349.63H38.4008V344.108H46.6378C50.3498 344.108 53.5863 344.783 56.3472 346.133C59.1082 347.452 61.2403 349.354 62.7435 351.839C64.2774 354.293 65.0444 357.207 65.0444 360.582C65.0444 363.956 64.2774 366.901 62.7435 369.417C61.2097 371.902 59.0622 373.834 56.3012 375.215C53.5709 376.565 50.3651 377.24 46.6838 377.24H38.2627ZM33.9372 377.24V344.108H41.0237V377.24H33.9372Z" fill="var(--fill-0, black)"/>
<path d="M80.2255 377.7C77.6486 377.7 75.3784 377.194 73.4151 376.181C71.4824 375.138 69.9638 373.696 68.8594 371.856C67.7857 369.984 67.2488 367.837 67.2488 365.413C67.2488 362.99 67.7857 360.873 68.8594 359.063C69.9638 357.253 71.4824 355.842 73.4151 354.83C75.3784 353.817 77.6486 353.311 80.2255 353.311C82.8331 353.311 85.1033 353.817 87.036 354.83C88.9993 355.842 90.5179 357.253 91.5916 359.063C92.6653 360.873 93.2022 362.99 93.2022 365.413C93.2022 367.837 92.65 369.984 91.5456 371.856C90.4719 373.696 88.9533 375.138 86.9899 376.181C85.0572 377.194 82.8024 377.7 80.2255 377.7ZM80.2255 372.27C81.2992 372.27 82.2656 371.994 83.1246 371.442C84.0142 370.889 84.7198 370.107 85.2413 369.095C85.7628 368.052 86.0236 366.809 86.0236 365.367C86.0236 363.251 85.4561 361.625 84.321 360.49C83.2166 359.324 81.8514 358.741 80.2255 358.741C78.5996 358.741 77.2191 359.324 76.084 360.49C74.9796 361.655 74.4274 363.281 74.4274 365.367C74.4274 366.809 74.6882 368.052 75.2097 369.095C75.7312 370.107 76.4215 370.889 77.2805 371.442C78.1701 371.994 79.1518 372.27 80.2255 372.27Z" fill="var(--fill-0, black)"/>
<path d="M96.8612 377.24V353.771H103.626V359.293H103.764V377.24H96.8612ZM112.645 377.24V362.33C112.645 361.134 112.323 360.26 111.679 359.707C111.065 359.125 110.191 358.833 109.056 358.833C108.074 358.833 107.169 359.063 106.341 359.523C105.543 359.953 104.914 360.582 104.454 361.41C103.994 362.208 103.764 363.159 103.764 364.263L103.165 358.971C103.932 357.253 105.037 355.888 106.479 354.876C107.951 353.833 109.715 353.311 111.771 353.311C114.225 353.311 116.127 354.001 117.477 355.382C118.857 356.762 119.547 358.496 119.547 360.582V377.24H112.645ZM128.429 377.24V362.33C128.429 361.134 128.106 360.26 127.462 359.707C126.849 359.125 125.974 358.833 124.839 358.833C123.858 358.833 122.953 359.063 122.124 359.523C121.327 359.953 120.698 360.582 120.238 361.41C119.777 362.208 119.547 363.159 119.547 364.263L118.489 358.971C119.256 357.253 120.391 355.888 121.894 354.876C123.428 353.833 125.269 353.311 127.416 353.311C129.962 353.311 131.91 354.032 133.26 355.474C134.641 356.885 135.331 358.741 135.331 361.042V377.24H128.429Z" fill="var(--fill-0, black)"/>
<path d="M140.316 377.24V353.771H147.219V377.24H140.316ZM140.086 350.642V343.187H147.449V350.642H140.086Z" fill="var(--fill-0, black)"/>
<path d="M152.719 377.24V353.771H159.484V359.293H159.622V377.24H152.719ZM169.055 377.24V362.698C169.055 361.41 168.718 360.444 168.043 359.799C167.398 359.155 166.447 358.833 165.19 358.833C164.116 358.833 163.15 359.078 162.291 359.569C161.462 360.06 160.803 360.735 160.312 361.594C159.852 362.453 159.622 363.465 159.622 364.631L159.023 358.971C159.79 357.253 160.91 355.888 162.383 354.876C163.886 353.833 165.726 353.311 167.905 353.311C170.512 353.311 172.506 354.047 173.887 355.52C175.267 356.962 175.957 358.91 175.957 361.364V377.24H169.055Z" fill="var(--fill-0, black)"/>
<path d="M192.346 377.7C189.769 377.7 187.499 377.194 185.535 376.181C183.603 375.138 182.084 373.696 180.98 371.856C179.906 369.984 179.369 367.837 179.369 365.413C179.369 362.99 179.906 360.873 180.98 359.063C182.084 357.253 183.603 355.842 185.535 354.83C187.499 353.817 189.769 353.311 192.346 353.311C194.953 353.311 197.224 353.817 199.156 354.83C201.12 355.842 202.638 357.253 203.712 359.063C204.786 360.873 205.323 362.99 205.323 365.413C205.323 367.837 204.77 369.984 203.666 371.856C202.592 373.696 201.074 375.138 199.11 376.181C197.178 377.194 194.923 377.7 192.346 377.7ZM192.346 372.27C193.42 372.27 194.386 371.994 195.245 371.442C196.135 370.889 196.84 370.107 197.362 369.095C197.883 368.052 198.144 366.809 198.144 365.367C198.144 363.251 197.576 361.625 196.441 360.49C195.337 359.324 193.972 358.741 192.346 358.741C190.72 358.741 189.339 359.324 188.204 360.49C187.1 361.655 186.548 363.281 186.548 365.367C186.548 366.809 186.809 368.052 187.33 369.095C187.852 370.107 188.542 370.889 189.401 371.442C190.29 371.994 191.272 372.27 192.346 372.27Z" fill="var(--fill-0, black)"/>
<path d="M206.508 357.591V354.231C208.042 354.047 209.039 353.556 209.499 352.759C209.99 351.961 210.235 350.903 210.235 349.584L212.95 350.136H206.6V343.187H214.193V348.341C214.193 350.642 213.564 352.652 212.306 354.369C211.079 356.087 209.146 357.161 206.508 357.591Z" fill="var(--fill-0, black)"/>
<path d="M225.202 377.7C221.766 377.7 219.035 377.01 217.011 375.629C214.986 374.249 213.882 372.347 213.698 369.923H219.864C220.017 370.966 220.539 371.764 221.428 372.316C222.349 372.837 223.606 373.098 225.202 373.098C226.644 373.098 227.687 372.899 228.331 372.5C229.006 372.07 229.343 371.472 229.343 370.705C229.343 370.122 229.144 369.678 228.745 369.371C228.377 369.033 227.687 368.757 226.674 368.543L222.901 367.76C220.109 367.177 218.054 366.303 216.735 365.137C215.415 363.941 214.756 362.407 214.756 360.536C214.756 358.266 215.63 356.502 217.379 355.244C219.127 353.955 221.566 353.311 224.695 353.311C227.794 353.311 230.263 353.94 232.104 355.198C233.945 356.425 234.957 358.143 235.141 360.352H228.975C228.852 359.554 228.423 358.956 227.687 358.557C226.95 358.127 225.907 357.913 224.557 357.913C223.33 357.913 222.41 358.097 221.796 358.465C221.214 358.802 220.922 359.293 220.922 359.937C220.922 360.49 221.168 360.934 221.658 361.272C222.149 361.579 222.962 361.855 224.097 362.1L228.331 362.975C230.693 363.465 232.472 364.386 233.669 365.736C234.896 367.055 235.509 368.619 235.509 370.429C235.509 372.73 234.604 374.525 232.794 375.813C231.015 377.071 228.484 377.7 225.202 377.7Z" fill="var(--fill-0, black)"/>
</g>
<defs>
<filter id="filter0_d_22_5" x="0" y="0" width="362.479" height="420" filterUnits="userSpaceOnUse" color-interpolation-filters="sRGB">
<feFlood flood-opacity="0" result="BackgroundImageFix"/>
<feColorMatrix in="SourceAlpha" type="matrix" values="0 0 0 0 0 0 0 0 0 0 0 0 0 0 0 0 0 0 127 0" result="hardAlpha"/>
<feOffset dx="10" dy="10"/>
<feGaussianBlur stdDeviation="2"/>
<feComposite in2="hardAlpha" operator="out"/>
<feColorMatrix type="matrix" values="0 0 0 0 0 0 0 0 0 0 0 0 0 0 0 0 0 0 0.25 0"/>
<feBlend mode="normal" in2="BackgroundImageFix" result="effect1_dropShadow_22_5"/>
<feBlend mode="normal" in="SourceGraphic" in2="effect1_dropShadow_22_5" result="shape"/>
</filter>
</defs>
</svg>
