<svg preserveAspectRatio="xMidYMid meet" width="100%" height="100%" overflow="visible" style="display: block;" viewBox="0 0 326.289 367.121" fill="none" xmlns="http://www.w3.org/2000/svg">
<g id="Vector" filter="url(#filter0_d_22_9)">
<path d="M0 14.1248C0 6.32391 6.46212 0 14.4335 0H297.856C305.827 0 312.289 6.3239 312.289 14.1248V338.996C312.289 346.797 305.827 353.121 297.856 353.121H14.4336C6.46213 353.121 0 346.797 0 338.996V14.1248Z" fill="#FFEACD"/>
<path d="M20.8473 36.5962V25.5017H22.5163V36.5962H20.8473ZM28.358 36.5962V25.5017H30.027V36.5962H28.358ZM21.6661 30.1398H29.098V31.4958H21.6661V30.1398Z" fill="black"/>
<path d="M35.8442 36.7503C35.0254 36.7503 34.3064 36.5756 33.687 36.2264C33.0677 35.8668 32.5848 35.3789 32.2384 34.7625C31.892 34.1359 31.7188 33.4271 31.7188 32.6361C31.7188 31.8348 31.892 31.1311 32.2384 30.5251C32.5953 29.919 33.0782 29.4464 33.687 29.1074C34.3064 28.7582 35.0254 28.5835 35.8442 28.5835C36.6735 28.5835 37.3978 28.7582 38.0171 29.1074C38.6364 29.4464 39.114 29.919 39.45 30.5251C39.7964 31.1311 39.9696 31.8348 39.9696 32.6361C39.9696 33.4271 39.7964 34.1359 39.45 34.7625C39.114 35.3789 38.6364 35.8668 38.0171 36.2264C37.3978 36.5756 36.6735 36.7503 35.8442 36.7503ZM35.8442 35.4405C36.3376 35.4405 36.7627 35.3224 37.1196 35.0861C37.487 34.8498 37.7757 34.5211 37.9856 34.0999C38.1955 33.6787 38.3005 33.1857 38.3005 32.6207C38.3005 31.7783 38.0696 31.1157 37.6077 30.6329C37.1563 30.1398 36.5685 29.8933 35.8442 29.8933C35.1304 29.8933 34.5426 30.1398 34.0807 30.6329C33.6293 31.126 33.4036 31.7886 33.4036 32.6207C33.4036 33.1857 33.5033 33.6787 33.7028 34.0999C33.9127 34.5211 34.2014 34.8498 34.5688 35.0861C34.9467 35.3224 35.3718 35.4405 35.8442 35.4405Z" fill="black"/>
<path d="M43.1357 36.5962L40.6793 28.7376H42.3641L44.0332 35.0553H43.797L45.8282 28.7376H47.2453L49.2765 35.0553H49.0561L50.7094 28.7376H52.3154L49.8591 36.5962H48.4262L46.395 30.3864H46.6312L44.5685 36.5962H43.1357Z" fill="black"/>
<path d="M56.9205 36.5962V28.7376H58.4794V30.5867H58.5581V36.5962H56.9205ZM62.337 36.5962V31.465C62.337 30.9308 62.2111 30.5405 61.9591 30.2939C61.7072 30.0474 61.3451 29.9241 60.8727 29.9241C60.4318 29.9241 60.0329 30.0268 59.676 30.2323C59.3296 30.4275 59.0567 30.7048 58.8573 31.0644C58.6578 31.4136 58.5581 31.8297 58.5581 32.3125L58.3534 30.4788C58.6158 29.8933 59.0095 29.431 59.5343 29.092C60.0697 28.753 60.668 28.5835 61.3293 28.5835C62.1271 28.5835 62.7622 28.8095 63.2345 29.2615C63.7174 29.7135 63.9589 30.3093 63.9589 31.049V36.5962H62.337ZM67.7536 36.5962V31.465C67.7536 30.9308 67.6223 30.5405 67.3599 30.2939C67.108 30.0474 66.7458 29.9241 66.2735 29.9241C65.8431 29.9241 65.4494 30.0268 65.0925 30.2323C64.7461 30.4275 64.468 30.7048 64.258 31.0644C64.0586 31.4136 63.9589 31.8297 63.9589 32.3125L63.6282 30.4788C63.9011 29.8933 64.3105 29.431 64.8564 29.092C65.4127 28.753 66.032 28.5835 66.7143 28.5835C67.5226 28.5835 68.1682 28.8147 68.6511 29.2769C69.1339 29.7289 69.3754 30.335 69.3754 31.0952V36.5962H67.7536Z" fill="black"/>
<path d="M76.4578 36.5962C76.4054 36.401 76.3686 36.1853 76.3476 35.949C76.3371 35.7127 76.3319 35.4251 76.3319 35.0861H76.2532V31.3417C76.2532 30.8384 76.1219 30.4634 75.8595 30.2169C75.6076 29.9601 75.2034 29.8317 74.6471 29.8317C74.1117 29.8317 73.6814 29.9344 73.356 30.1398C73.041 30.3453 72.8573 30.6381 72.8049 31.0181H71.246C71.3195 30.2785 71.6607 29.6878 72.2695 29.2461C72.8783 28.8044 73.6919 28.5835 74.7101 28.5835C75.7598 28.5835 76.5471 28.8249 77.0719 29.3077C77.5968 29.7803 77.8592 30.4788 77.8592 31.4034V35.0861C77.8592 35.3224 77.875 35.5638 77.9065 35.8103C77.9379 36.0569 77.9852 36.3188 78.0482 36.5962H76.4578ZM73.6866 36.7503C72.8678 36.7503 72.217 36.5551 71.7341 36.1647C71.2513 35.7641 71.0098 35.2248 71.0098 34.5468C71.0098 33.8482 71.2618 33.2987 71.7656 32.898C72.28 32.4871 73.0148 32.2098 73.97 32.0659L76.6153 31.6499V32.7748L74.222 33.1446C73.6866 33.2268 73.2825 33.3654 73.0095 33.5606C72.7471 33.7558 72.6159 34.0383 72.6159 34.4081C72.6159 34.7676 72.7366 35.0399 72.9781 35.2248C73.23 35.3994 73.5921 35.4867 74.0645 35.4867C74.6943 35.4867 75.2139 35.3378 75.6233 35.0399C76.0432 34.742 76.2532 34.367 76.2532 33.915L76.4578 35.0553C76.2689 35.5997 75.933 36.0209 75.4501 36.3188C74.9673 36.6064 74.3794 36.7503 73.6866 36.7503Z" fill="black"/>
<path d="M80.0778 36.5962V28.7376H81.6366V30.5867H81.7153V36.5962H80.0778ZM85.7777 36.5962V31.542C85.7777 30.9976 85.636 30.5918 85.3526 30.3247C85.0796 30.0576 84.6702 29.9241 84.1244 29.9241C83.652 29.9241 83.2321 30.0268 82.8647 30.2323C82.5078 30.4377 82.2244 30.7202 82.0145 31.0798C81.815 31.4393 81.7153 31.8656 81.7153 32.3587L81.5106 30.4788C81.773 29.8933 82.1772 29.431 82.723 29.092C83.2689 28.753 83.904 28.5835 84.6283 28.5835C85.489 28.5835 86.1661 28.8198 86.6595 29.2923C87.1528 29.7649 87.3995 30.3915 87.3995 31.1722V36.5962H85.7777Z" fill="black"/>
<path d="M89.8867 39.755L91.8234 35.4251L92.1541 34.9166L94.5947 28.7376H96.2952L91.5715 39.755H89.8867ZM91.7447 36.5962L88.3121 28.7376H90.0914L93.0044 35.8103L91.7447 36.5962Z" fill="black"/>
<path d="M103.641 36.7503C102.591 36.7503 101.757 36.5243 101.138 36.0723C100.518 35.6203 100.167 34.9834 100.083 34.1616H101.594C101.668 34.6136 101.878 34.9628 102.224 35.2094C102.581 35.4456 103.064 35.5638 103.673 35.5638C104.208 35.5638 104.617 35.4713 104.901 35.2864C105.184 35.1015 105.326 34.8395 105.326 34.5006C105.326 34.254 105.242 34.0486 105.074 33.8842C104.917 33.7096 104.602 33.5657 104.129 33.4527L102.838 33.16C102.03 32.9648 101.426 32.6772 101.027 32.2971C100.639 31.9067 100.445 31.429 100.445 30.864C100.445 30.1552 100.712 29.6005 101.248 29.1999C101.794 28.789 102.539 28.5835 103.484 28.5835C104.418 28.5835 105.169 28.789 105.735 29.1999C106.313 29.6108 106.638 30.1861 106.712 30.9257H105.2C105.137 30.5559 104.953 30.2734 104.649 30.0782C104.355 29.8727 103.951 29.77 103.436 29.77C102.954 29.77 102.581 29.8573 102.319 30.032C102.067 30.1963 101.941 30.4275 101.941 30.7254C101.941 30.9719 102.035 31.1774 102.224 31.3417C102.424 31.5061 102.749 31.6448 103.2 31.7578L104.523 32.0814C105.289 32.2663 105.867 32.5693 106.255 32.9905C106.643 33.4014 106.838 33.8996 106.838 34.4851C106.838 35.194 106.554 35.7487 105.987 36.1493C105.431 36.5499 104.649 36.7503 103.641 36.7503Z" fill="black"/>
<path d="M108.355 36.5962V25.5017H109.993V36.5962H108.355Z" fill="black"/>
<path d="M112.292 36.5962V28.7376H113.929V36.5962H112.292ZM112.213 27.1967V25.3939H114.024V27.1967H112.213Z" fill="black"/>
<path d="M119.536 36.7503C118.769 36.7503 118.087 36.5756 117.489 36.2264C116.89 35.8668 116.418 35.3789 116.072 34.7625C115.736 34.1461 115.568 33.4425 115.568 32.6515C115.568 31.8605 115.736 31.162 116.072 30.5559C116.418 29.9395 116.89 29.4567 117.489 29.1074C118.087 28.7582 118.764 28.5835 119.52 28.5835C120.16 28.5835 120.732 28.7017 121.236 28.9379C121.74 29.1742 122.155 29.5029 122.48 29.9241C122.805 30.3453 123.015 30.8435 123.11 31.4188H121.567C121.462 30.9565 121.231 30.5867 120.874 30.3093C120.528 30.032 120.087 29.8933 119.551 29.8933C119.089 29.8933 118.685 30.0063 118.339 30.2323C117.993 30.4583 117.725 30.7767 117.536 31.1876C117.347 31.5985 117.252 32.0865 117.252 32.6515C117.252 33.2062 117.347 33.6942 117.536 34.1153C117.725 34.5365 117.993 34.8652 118.339 35.1015C118.685 35.3275 119.095 35.4405 119.567 35.4405C120.081 35.4405 120.517 35.307 120.874 35.0399C121.241 34.7625 121.478 34.3927 121.583 33.9304H123.126C123.021 34.4954 122.8 34.9885 122.464 35.4097C122.139 35.8309 121.724 36.1596 121.22 36.3958C120.717 36.6321 120.155 36.7503 119.536 36.7503Z" fill="black"/>
<path d="M128.18 36.7503C127.372 36.7503 126.658 36.5756 126.039 36.2264C125.43 35.8771 124.952 35.3943 124.606 34.7779C124.26 34.1616 124.086 33.4527 124.086 32.6515C124.086 31.8399 124.254 31.1311 124.59 30.5251C124.937 29.9087 125.419 29.431 126.039 29.092C126.658 28.753 127.367 28.5835 128.164 28.5835C128.941 28.5835 129.613 28.7479 130.18 29.0766C130.757 29.3951 131.198 29.8419 131.503 30.4172C131.817 30.9925 131.975 31.6756 131.975 32.4666C131.975 32.5898 131.97 32.708 131.959 32.821C131.959 32.9237 131.949 33.0316 131.928 33.1446H125.189V31.9427H130.778L130.369 32.4203C130.369 31.578 130.175 30.936 129.786 30.4942C129.398 30.0525 128.857 29.8317 128.164 29.8317C127.419 29.8317 126.826 30.0833 126.385 30.5867C125.955 31.0798 125.74 31.768 125.74 32.6515C125.74 33.5452 125.955 34.2437 126.385 34.7471C126.826 35.2505 127.435 35.5021 128.212 35.5021C128.684 35.5021 129.093 35.4097 129.44 35.2248C129.786 35.0296 130.043 34.7471 130.211 34.3773H131.754C131.492 35.1169 131.046 35.6973 130.416 36.1185C129.797 36.5397 129.051 36.7503 128.18 36.7503Z" fill="black"/>
<path d="M136.578 36.7503C135.528 36.7503 134.694 36.5243 134.074 36.0723C133.455 35.6203 133.103 34.9834 133.019 34.1616H134.531C134.604 34.6136 134.814 34.9628 135.161 35.2094C135.518 35.4456 136.001 35.5638 136.609 35.5638C137.145 35.5638 137.554 35.4713 137.838 35.2864C138.121 35.1015 138.263 34.8395 138.263 34.5006C138.263 34.254 138.179 34.0486 138.011 33.8842C137.853 33.7096 137.538 33.5657 137.066 33.4527L135.775 33.16C134.967 32.9648 134.363 32.6772 133.964 32.2971C133.576 31.9067 133.382 31.429 133.382 30.864C133.382 30.1552 133.649 29.6005 134.185 29.1999C134.73 28.789 135.476 28.5835 136.42 28.5835C137.355 28.5835 138.105 28.789 138.672 29.1999C139.249 29.6108 139.575 30.1861 139.648 30.9257H138.137C138.074 30.5559 137.89 30.2734 137.586 30.0782C137.292 29.8727 136.888 29.77 136.373 29.77C135.89 29.77 135.518 29.8573 135.255 30.032C135.003 30.1963 134.877 30.4275 134.877 30.7254C134.877 30.9719 134.972 31.1774 135.161 31.3417C135.36 31.5061 135.686 31.6448 136.137 31.7578L137.46 32.0814C138.226 32.2663 138.803 32.5693 139.192 32.9905C139.58 33.4014 139.774 33.8996 139.774 34.4851C139.774 35.194 139.491 35.7487 138.924 36.1493C138.368 36.5499 137.586 36.7503 136.578 36.7503Z" fill="black"/>
<path d="M147.894 36.7503C147.075 36.7503 146.356 36.5756 145.737 36.2264C145.117 35.8668 144.634 35.3789 144.288 34.7625C143.942 34.1359 143.768 33.4271 143.768 32.6361C143.768 31.8348 143.942 31.1311 144.288 30.5251C144.645 29.919 145.128 29.4464 145.737 29.1074C146.356 28.7582 147.075 28.5835 147.894 28.5835C148.723 28.5835 149.447 28.7582 150.067 29.1074C150.686 29.4464 151.164 29.919 151.5 30.5251C151.846 31.1311 152.019 31.8348 152.019 32.6361C152.019 33.4271 151.846 34.1359 151.5 34.7625C151.164 35.3789 150.686 35.8668 150.067 36.2264C149.447 36.5756 148.723 36.7503 147.894 36.7503ZM147.894 35.4405C148.387 35.4405 148.812 35.3224 149.169 35.0861C149.537 34.8498 149.825 34.5211 150.035 34.0999C150.245 33.6787 150.35 33.1857 150.35 32.6207C150.35 31.7783 150.119 31.1157 149.657 30.6329C149.206 30.1398 148.618 29.8933 147.894 29.8933C147.18 29.8933 146.592 30.1398 146.13 30.6329C145.679 31.126 145.453 31.7886 145.453 32.6207C145.453 33.1857 145.553 33.6787 145.752 34.0999C145.962 34.5211 146.251 34.8498 146.618 35.0861C146.996 35.3224 147.421 35.4405 147.894 35.4405Z" fill="black"/>
<path d="M154.239 36.5962V27.8285C154.239 27.0272 154.47 26.416 154.932 25.9948C155.394 25.5634 156.087 25.3477 157.01 25.3477C157.22 25.3477 157.393 25.3579 157.53 25.3785C157.666 25.399 157.787 25.4298 157.892 25.4709V26.7036C157.819 26.6831 157.719 26.6626 157.593 26.642C157.477 26.6215 157.346 26.6112 157.199 26.6112C156.737 26.6112 156.401 26.7242 156.192 26.9502C155.982 27.1659 155.877 27.4741 155.877 27.8747V36.5962H154.239ZM152.696 30.0166V28.7376H157.719V30.0166H152.696Z" fill="black"/>
<path d="M167.38 36.5962C167.327 36.401 167.291 36.1853 167.27 35.949C167.259 35.7127 167.254 35.4251 167.254 35.0861H167.175V31.3417C167.175 30.8384 167.044 30.4634 166.782 30.2169C166.53 29.9601 166.126 29.8317 165.569 29.8317C165.034 29.8317 164.603 29.9344 164.278 30.1398C163.963 30.3453 163.779 30.6381 163.727 31.0181H162.168C162.242 30.2785 162.583 29.6878 163.192 29.2461C163.8 28.8044 164.614 28.5835 165.632 28.5835C166.682 28.5835 167.469 28.8249 167.994 29.3077C168.519 29.7803 168.781 30.4788 168.781 31.4034V35.0861C168.781 35.3224 168.797 35.5638 168.829 35.8103C168.86 36.0569 168.907 36.3188 168.97 36.5962H167.38ZM164.609 36.7503C163.79 36.7503 163.139 36.5551 162.656 36.1647C162.173 35.7641 161.932 35.2248 161.932 34.5468C161.932 33.8482 162.184 33.2987 162.688 32.898C163.202 32.4871 163.937 32.2098 164.892 32.0659L167.537 31.6499V32.7748L165.144 33.1446C164.609 33.2268 164.205 33.3654 163.932 33.5606C163.669 33.7558 163.538 34.0383 163.538 34.4081C163.538 34.7676 163.659 35.0399 163.9 35.2248C164.152 35.3994 164.514 35.4867 164.987 35.4867C165.616 35.4867 166.136 35.3378 166.545 35.0399C166.965 34.742 167.175 34.367 167.175 33.915L167.38 35.0553C167.191 35.5997 166.855 36.0209 166.372 36.3188C165.889 36.6064 165.302 36.7503 164.609 36.7503Z" fill="black"/>
<path d="M174.106 36.5962V25.5017H175.743V36.5962H174.106Z" fill="black"/>
<path d="M183.018 36.5962C182.966 36.401 182.929 36.1853 182.908 35.949C182.897 35.7127 182.892 35.4251 182.892 35.0861H182.813V31.3417C182.813 30.8384 182.682 30.4634 182.42 30.2169C182.168 29.9601 181.764 29.8317 181.207 29.8317C180.672 29.8317 180.242 29.9344 179.916 30.1398C179.601 30.3453 179.417 30.6381 179.365 31.0181H177.806C177.88 30.2785 178.221 29.6878 178.83 29.2461C179.438 28.8044 180.252 28.5835 181.27 28.5835C182.32 28.5835 183.107 28.8249 183.632 29.3077C184.157 29.7803 184.419 30.4788 184.419 31.4034V35.0861C184.419 35.3224 184.435 35.5638 184.467 35.8103C184.498 36.0569 184.545 36.3188 184.608 36.5962H183.018ZM180.247 36.7503C179.428 36.7503 178.777 36.5551 178.294 36.1647C177.811 35.7641 177.57 35.2248 177.57 34.5468C177.57 33.8482 177.822 33.2987 178.326 32.898C178.84 32.4871 179.575 32.2098 180.53 32.0659L183.175 31.6499V32.7748L180.782 33.1446C180.247 33.2268 179.843 33.3654 179.57 33.5606C179.307 33.7558 179.176 34.0383 179.176 34.4081C179.176 34.7676 179.297 35.0399 179.538 35.2248C179.79 35.3994 180.152 35.4867 180.625 35.4867C181.254 35.4867 181.774 35.3378 182.183 35.0399C182.603 34.742 182.813 34.367 182.813 33.915L183.018 35.0553C182.829 35.5997 182.493 36.0209 182.01 36.3188C181.527 36.6064 180.94 36.7503 180.247 36.7503Z" fill="black"/>
<path d="M186.638 36.5962V28.7376H188.197V30.6946H188.275V36.5962H186.638ZM188.275 32.4974L188.071 30.6329C188.26 29.9652 188.585 29.4567 189.047 29.1074C189.509 28.7582 190.06 28.5835 190.7 28.5835C190.942 28.5835 191.11 28.6041 191.204 28.6452V30.1552C191.152 30.1347 191.078 30.1244 190.984 30.1244C190.889 30.1141 190.774 30.109 190.637 30.109C189.85 30.109 189.257 30.3093 188.858 30.71C188.47 31.1106 188.275 31.7064 188.275 32.4974Z" fill="black"/>
<path d="M195.82 39.9091C194.812 39.9091 193.978 39.6831 193.316 39.2311C192.665 38.7894 192.272 38.1987 192.135 37.4591H193.678C193.783 37.7981 194.014 38.0651 194.371 38.2603C194.739 38.4555 195.227 38.5531 195.836 38.5531C196.623 38.5531 197.211 38.3631 197.599 37.983C197.988 37.6029 198.182 37.0379 198.182 36.288V34.593L198.323 34.6238C198.166 35.2196 197.825 35.6922 197.3 36.0414C196.775 36.3804 196.145 36.5499 195.41 36.5499C194.707 36.5499 194.088 36.3856 193.552 36.0569C193.017 35.7281 192.603 35.271 192.309 34.6855C192.015 34.0896 191.868 33.3962 191.868 32.6053C191.868 31.804 192.02 31.1003 192.324 30.4942C192.629 29.8882 193.054 29.4207 193.6 29.092C194.156 28.7633 194.802 28.5989 195.536 28.5989C196.292 28.5989 196.917 28.7787 197.41 29.1383C197.914 29.4875 198.234 29.9857 198.371 30.6329L198.245 30.6483V28.7376H199.804V36.2726C199.804 37.4026 199.447 38.2911 198.733 38.9383C198.03 39.5855 197.059 39.9091 195.82 39.9091ZM195.899 35.2556C196.602 35.2556 197.163 35.0142 197.583 34.5314C198.014 34.0486 198.229 33.386 198.229 32.5436C198.229 31.7218 198.014 31.0746 197.583 30.6021C197.163 30.1296 196.597 29.8933 195.883 29.8933C195.169 29.8933 194.602 30.1347 194.182 30.6175C193.762 31.09 193.552 31.7475 193.552 32.5898C193.552 33.4117 193.762 34.064 194.182 34.5468C194.613 35.0193 195.185 35.2556 195.899 35.2556Z" fill="black"/>
<path d="M205.571 36.7503C204.763 36.7503 204.049 36.5756 203.429 36.2264C202.821 35.8771 202.343 35.3943 201.997 34.7779C201.65 34.1616 201.477 33.4527 201.477 32.6515C201.477 31.8399 201.645 31.1311 201.981 30.5251C202.327 29.9087 202.81 29.431 203.429 29.092C204.049 28.753 204.757 28.5835 205.555 28.5835C206.332 28.5835 207.004 28.7479 207.571 29.0766C208.148 29.3951 208.589 29.8419 208.893 30.4172C209.208 30.9925 209.366 31.6756 209.366 32.4666C209.366 32.5898 209.36 32.708 209.35 32.821C209.35 32.9237 209.339 33.0316 209.318 33.1446H202.579V31.9427H208.169L207.76 32.4203C207.76 31.578 207.565 30.936 207.177 30.4942C206.789 30.0525 206.248 29.8317 205.555 29.8317C204.81 29.8317 204.217 30.0833 203.776 30.5867C203.345 31.0798 203.13 31.768 203.13 32.6515C203.13 33.5452 203.345 34.2437 203.776 34.7471C204.217 35.2505 204.826 35.5021 205.602 35.5021C206.075 35.5021 206.484 35.4097 206.831 35.2248C207.177 35.0296 207.434 34.7471 207.602 34.3773H209.145C208.883 35.1169 208.437 35.6973 207.807 36.1185C207.187 36.5397 206.442 36.7503 205.571 36.7503Z" fill="black"/>
<path d="M215.391 36.5962V35.3326H218.776C219.416 35.3326 219.915 35.1631 220.272 34.8241C220.639 34.4851 220.823 34.0229 220.823 33.4373C220.823 32.821 220.629 32.3279 220.24 31.9581C219.862 31.5883 219.343 31.4034 218.681 31.4034H215.391V30.1706H218.524C219.164 30.1706 219.658 30.0217 220.004 29.7238C220.361 29.4156 220.539 28.979 220.539 28.414C220.539 27.8799 220.372 27.4741 220.036 27.1967C219.71 26.9091 219.227 26.7653 218.587 26.7653H215.391V25.5017H218.839C219.868 25.5017 220.686 25.7483 221.295 26.2414C221.904 26.7242 222.209 27.3868 222.209 28.2291C222.209 28.7633 222.083 29.2358 221.831 29.6467C221.589 30.0474 221.253 30.3607 220.823 30.5867C220.393 30.8024 219.904 30.9103 219.359 30.9103L219.437 30.5867C220.025 30.5867 220.55 30.7202 221.012 30.9873C221.474 31.2441 221.841 31.5985 222.114 32.0505C222.387 32.5025 222.523 33.0264 222.523 33.6222C222.523 34.2078 222.376 34.7266 222.083 35.1785C221.799 35.6305 221.395 35.9798 220.87 36.2264C220.345 36.4729 219.736 36.5962 219.044 36.5962H215.391ZM214.162 36.5962V25.5017H215.832V36.5962H214.162Z" fill="black"/>
<path d="M224.295 36.5962V28.7376H225.933V36.5962H224.295ZM224.217 27.1967V25.3939H226.027V27.1967H224.217Z" fill="black"/>
<path d="M231.555 39.9091C230.547 39.9091 229.713 39.6831 229.052 39.2311C228.401 38.7894 228.007 38.1987 227.871 37.4591H229.414C229.519 37.7981 229.75 38.0651 230.107 38.2603C230.474 38.4555 230.962 38.5531 231.571 38.5531C232.358 38.5531 232.946 38.3631 233.334 37.983C233.723 37.6029 233.917 37.0379 233.917 36.288V34.593L234.059 34.6238C233.901 35.2196 233.56 35.6922 233.035 36.0414C232.51 36.3804 231.881 36.5499 231.146 36.5499C230.443 36.5499 229.823 36.3856 229.288 36.0569C228.752 35.7281 228.338 35.271 228.044 34.6855C227.75 34.0896 227.603 33.3962 227.603 32.6053C227.603 31.804 227.755 31.1003 228.06 30.4942C228.364 29.8882 228.789 29.4207 229.335 29.092C229.891 28.7633 230.537 28.5989 231.272 28.5989C232.028 28.5989 232.652 28.7787 233.146 29.1383C233.649 29.4875 233.97 29.9857 234.106 30.6329L233.98 30.6483V28.7376H235.539V36.2726C235.539 37.4026 235.182 38.2911 234.468 38.9383C233.765 39.5855 232.794 39.9091 231.555 39.9091ZM231.634 35.2556C232.337 35.2556 232.899 35.0142 233.319 34.5314C233.749 34.0486 233.964 33.386 233.964 32.5436C233.964 31.7218 233.749 31.0746 233.319 30.6021C232.899 30.1296 232.332 29.8933 231.618 29.8933C230.904 29.8933 230.338 30.1347 229.918 30.6175C229.498 31.09 229.288 31.7475 229.288 32.5898C229.288 33.4117 229.498 34.064 229.918 34.5468C230.348 35.0193 230.92 35.2556 231.634 35.2556Z" fill="black"/>
<path d="M242.019 36.7503C241.62 36.7503 241.237 36.7194 240.869 36.6578C240.502 36.6064 240.234 36.5397 240.066 36.4575V35.0707C240.297 35.1631 240.576 35.2402 240.901 35.3018C241.226 35.3635 241.557 35.3943 241.893 35.3943C242.586 35.3943 243.105 35.2556 243.452 34.9782C243.809 34.6906 243.987 34.2386 243.987 33.6222V25.5017H245.656V33.6839C245.656 34.7111 245.347 35.4816 244.727 35.9952C244.108 36.4986 243.205 36.7503 242.019 36.7503Z" fill="black"/>
<path d="M251.363 36.7503C250.544 36.7503 249.825 36.5756 249.206 36.2264C248.587 35.8668 248.104 35.3789 247.758 34.7625C247.411 34.1359 247.238 33.4271 247.238 32.6361C247.238 31.8348 247.411 31.1311 247.758 30.5251C248.114 29.919 248.597 29.4464 249.206 29.1074C249.825 28.7582 250.544 28.5835 251.363 28.5835C252.193 28.5835 252.917 28.7582 253.536 29.1074C254.155 29.4464 254.633 29.919 254.969 30.5251C255.315 31.1311 255.489 31.8348 255.489 32.6361C255.489 33.4271 255.315 34.1359 254.969 34.7625C254.633 35.3789 254.155 35.8668 253.536 36.2264C252.917 36.5756 252.193 36.7503 251.363 36.7503ZM251.363 35.4405C251.857 35.4405 252.282 35.3224 252.639 35.0861C253.006 34.8498 253.295 34.5211 253.505 34.0999C253.715 33.6787 253.82 33.1857 253.82 32.6207C253.82 31.7783 253.589 31.1157 253.127 30.6329C252.675 30.1398 252.088 29.8933 251.363 29.8933C250.649 29.8933 250.062 30.1398 249.6 30.6329C249.148 31.126 248.923 31.7886 248.923 32.6207C248.923 33.1857 249.022 33.6787 249.222 34.0999C249.432 34.5211 249.72 34.8498 250.088 35.0861C250.466 35.3224 250.891 35.4405 251.363 35.4405Z" fill="black"/>
<path d="M257.171 36.5962V25.5017H258.808V36.5962H257.171ZM262.871 36.5962V31.542C262.871 30.9976 262.729 30.5918 262.445 30.3247C262.172 30.0576 261.763 29.9241 261.217 29.9241C260.745 29.9241 260.325 30.0268 259.958 30.2323C259.601 30.4377 259.317 30.7202 259.107 31.0798C258.908 31.4393 258.808 31.8656 258.808 32.3587L258.603 30.4788C258.866 29.8933 259.27 29.431 259.816 29.092C260.362 28.753 260.997 28.5835 261.721 28.5835C262.582 28.5835 263.259 28.8198 263.752 29.2923C264.246 29.7649 264.492 30.3915 264.492 31.1722V36.5962H262.871Z" fill="black"/>
<path d="M266.719 36.5962V28.7376H268.278V30.5867H268.357V36.5962H266.719ZM272.419 36.5962V31.542C272.419 30.9976 272.278 30.5918 271.994 30.3247C271.721 30.0576 271.312 29.9241 270.766 29.9241C270.294 29.9241 269.874 30.0268 269.506 30.2323C269.15 30.4377 268.866 30.7202 268.656 31.0798C268.457 31.4393 268.357 31.8656 268.357 32.3587L268.152 30.4788C268.415 29.8933 268.819 29.431 269.365 29.092C269.911 28.753 270.546 28.5835 271.27 28.5835C272.131 28.5835 272.808 28.8198 273.301 29.2923C273.795 29.7649 274.041 30.3915 274.041 31.1722V36.5962H272.419Z" fill="black"/>
<path d="M275.067 29.1537V28.3524C275.476 28.3113 275.754 28.1726 275.901 27.9364C276.059 27.6898 276.137 27.3303 276.137 26.8577L276.767 26.9502H275.083V25.1473H277.066V26.5341C277.066 27.2224 276.904 27.8028 276.578 28.2754C276.263 28.7479 275.76 29.0407 275.067 29.1537Z" fill="black"/>
<path d="M280.934 36.7503C279.884 36.7503 279.05 36.5243 278.43 36.0723C277.811 35.6203 277.459 34.9834 277.375 34.1616H278.887C278.96 34.6136 279.17 34.9628 279.517 35.2094C279.874 35.4456 280.357 35.5638 280.965 35.5638C281.501 35.5638 281.91 35.4713 282.194 35.2864C282.477 35.1015 282.619 34.8395 282.619 34.5006C282.619 34.254 282.535 34.0486 282.367 33.8842C282.209 33.7096 281.894 33.5657 281.422 33.4527L280.131 33.16C279.323 32.9648 278.719 32.6772 278.32 32.2971C277.932 31.9067 277.738 31.429 277.738 30.864C277.738 30.1552 278.005 29.6005 278.541 29.1999C279.086 28.789 279.832 28.5835 280.776 28.5835C281.711 28.5835 282.461 28.789 283.028 29.1999C283.605 29.6108 283.931 30.1861 284.004 30.9257H282.493C282.43 30.5559 282.246 30.2734 281.942 30.0782C281.648 29.8727 281.244 29.77 280.729 29.77C280.246 29.77 279.874 29.8573 279.611 30.032C279.359 30.1963 279.233 30.4275 279.233 30.7254C279.233 30.9719 279.328 31.1774 279.517 31.3417C279.716 31.5061 280.042 31.6448 280.493 31.7578L281.816 32.0814C282.582 32.2663 283.159 32.5693 283.548 32.9905C283.936 33.4014 284.13 33.8996 284.13 34.4851C284.13 35.194 283.847 35.7487 283.28 36.1493C282.724 36.5499 281.942 36.7503 280.934 36.7503Z" fill="black"/>
<path d="M25.1144 55.3539C24.3586 55.3539 23.7287 55.1793 23.2249 54.83C22.7315 54.4705 22.4061 53.9723 22.2487 53.3354L22.4691 53.3046V58.3741H20.8315V47.3567H22.3904V49.1596L22.2329 49.1133C22.4009 48.5175 22.7578 48.0501 23.3036 47.7111C23.8495 47.3721 24.4898 47.2026 25.2246 47.2026C25.9489 47.2026 26.5735 47.3721 27.0983 47.7111C27.6337 48.0501 28.0431 48.5227 28.3265 49.1287C28.6204 49.7348 28.7674 50.4436 28.7674 51.2552C28.7674 52.077 28.6152 52.7961 28.3107 53.4124C28.0063 54.0288 27.5812 54.5065 27.0353 54.8455C26.4895 55.1845 25.8492 55.3539 25.1144 55.3539ZM24.768 54.0288C25.4818 54.0288 26.0486 53.7822 26.4685 53.2892C26.8884 52.7961 27.0983 52.1181 27.0983 51.2552C27.0983 50.4026 26.8884 49.74 26.4685 49.2674C26.0486 48.7846 25.4765 48.5432 24.7522 48.5432C24.0384 48.5432 23.4663 48.7898 23.0359 49.2828C22.6161 49.7656 22.4061 50.4385 22.4061 51.3014C22.4061 52.1438 22.6161 52.8115 23.0359 53.3046C23.4663 53.7874 24.0437 54.0288 24.768 54.0288Z" fill="black"/>
<path d="M30.4419 55.2153V47.3567H32.0795V55.2153H30.4419ZM30.3632 45.8158V44.013H32.174V45.8158H30.3632Z" fill="black"/>
<path d="M33.8013 55.2153V54.0904L38.5408 47.9885L39.0131 48.6357H33.943V47.3567H40.1311V48.4816L35.4074 54.5527L34.9507 53.9363H40.257V55.2153H33.8013Z" fill="black"/>
<path d="M41.5819 55.2153V54.0904L46.3213 47.9885L46.7937 48.6357H41.7236V47.3567H47.9117V48.4816L43.188 54.5527L42.7313 53.9363H48.0376V55.2153H41.5819Z" fill="black"/>
<path d="M54.623 55.2153C54.5705 55.0201 54.5338 54.8044 54.5128 54.5681C54.5023 54.3318 54.497 54.0442 54.497 53.7052H54.4183V49.9608C54.4183 49.4575 54.2871 49.0825 54.0247 48.836C53.7727 48.5792 53.3686 48.4508 52.8123 48.4508C52.2769 48.4508 51.8465 48.5535 51.5211 48.7589C51.2062 48.9644 51.0225 49.2572 50.97 49.6372H49.4112C49.4847 48.8976 49.8258 48.3069 50.4347 47.8652C51.0435 47.4235 51.857 47.2026 52.8752 47.2026C53.925 47.2026 54.7122 47.444 55.2371 47.9269C55.762 48.3994 56.0244 49.0979 56.0244 50.0225V53.7052C56.0244 53.9415 56.0401 54.1829 56.0716 54.4294C56.1031 54.676 56.1503 54.9379 56.2133 55.2153H54.623ZM51.8518 55.3694C51.033 55.3694 50.3822 55.1742 49.8993 54.7838C49.4164 54.3832 49.175 53.8439 49.175 53.1659C49.175 52.4673 49.4269 51.9178 49.9308 51.5171C50.4452 51.1062 51.18 50.8289 52.1352 50.685L54.7805 50.269V51.3939L52.3871 51.7637C51.8518 51.8459 51.4476 51.9845 51.1747 52.1797C50.9123 52.3749 50.7811 52.6574 50.7811 53.0272C50.7811 53.3867 50.9018 53.659 51.1432 53.8439C51.3951 54.0185 51.7573 54.1058 52.2297 54.1058C52.8595 54.1058 53.3791 53.9569 53.7885 53.659C54.2084 53.3611 54.4183 52.9861 54.4183 52.5341L54.623 53.6744C54.4341 54.2188 54.0982 54.64 53.6153 54.9379C53.1324 55.2255 52.5446 55.3694 51.8518 55.3694Z" fill="black"/>
<path d="M64.6871 55.3694C63.9208 55.3694 63.2385 55.1947 62.6402 54.8455C62.0418 54.4859 61.5694 53.998 61.223 53.3816C60.8871 52.7652 60.7192 52.0616 60.7192 51.2706C60.7192 50.4796 60.8871 49.7811 61.223 49.175C61.5694 48.5586 62.0418 48.0758 62.6402 47.7265C63.2385 47.3773 63.9156 47.2026 64.6713 47.2026C65.3117 47.2026 65.8838 47.3208 66.3876 47.557C66.8915 47.7933 67.3061 48.122 67.6315 48.5432C67.9569 48.9644 68.1669 49.4626 68.2614 50.0379H66.7183C66.6133 49.5756 66.3824 49.2058 66.0255 48.9284C65.6791 48.6511 65.2382 48.5124 64.7028 48.5124C64.241 48.5124 63.8368 48.6254 63.4904 48.8514C63.144 49.0774 62.8763 49.3958 62.6874 49.8067C62.4984 50.2176 62.404 50.7056 62.404 51.2706C62.404 51.8253 62.4984 52.3133 62.6874 52.7344C62.8763 53.1556 63.144 53.4843 63.4904 53.7206C63.8368 53.9466 64.2462 54.0596 64.7186 54.0596C65.2329 54.0596 65.6686 53.9261 66.0255 53.659C66.3929 53.3816 66.6291 53.0118 66.734 52.5495H68.2771C68.1721 53.1145 67.9517 53.6076 67.6158 54.0288C67.2904 54.45 66.8757 54.7787 66.3719 55.015C65.868 55.2512 65.3064 55.3694 64.6871 55.3694Z" fill="black"/>
<path d="M74.7972 55.2153C74.7447 55.0201 74.7079 54.8044 74.687 54.5681C74.6765 54.3318 74.6712 54.0442 74.6712 53.7052H74.5925V49.9608C74.5925 49.4575 74.4613 49.0825 74.1988 48.836C73.9469 48.5792 73.5428 48.4508 72.9864 48.4508C72.4511 48.4508 72.0207 48.5535 71.6953 48.7589C71.3804 48.9644 71.1967 49.2572 71.1442 49.6372H69.5853C69.6588 48.8976 70 48.3069 70.6088 47.8652C71.2177 47.4235 72.0312 47.2026 73.0494 47.2026C74.0991 47.2026 74.8864 47.444 75.4113 47.9269C75.9361 48.3994 76.1985 49.0979 76.1985 50.0225V53.7052C76.1985 53.9415 76.2143 54.1829 76.2458 54.4294C76.2773 54.676 76.3245 54.9379 76.3875 55.2153H74.7972ZM72.0259 55.3694C71.2072 55.3694 70.5563 55.1742 70.0735 54.7838C69.5906 54.3832 69.3492 53.8439 69.3492 53.1659C69.3492 52.4673 69.6011 51.9178 70.105 51.5171C70.6193 51.1062 71.3541 50.8289 72.3094 50.685L74.9546 50.269V51.3939L72.5613 51.7637C72.0259 51.8459 71.6218 51.9845 71.3489 52.1797C71.0864 52.3749 70.9552 52.6574 70.9552 53.0272C70.9552 53.3867 71.0759 53.659 71.3174 53.8439C71.5693 54.0185 71.9315 54.1058 72.4038 54.1058C73.0337 54.1058 73.5533 53.9569 73.9627 53.659C74.3825 53.3611 74.5925 52.9861 74.5925 52.5341L74.7972 53.6744C74.6082 54.2188 74.2723 54.64 73.7895 54.9379C73.3066 55.2255 72.7187 55.3694 72.0259 55.3694Z" fill="black"/>
<path d="M78.4171 55.2153V47.3567H79.9759V49.2058H80.0546V55.2153H78.4171ZM84.117 55.2153V50.1611C84.117 49.6167 83.9753 49.2109 83.6919 48.9438C83.419 48.6768 83.0096 48.5432 82.4637 48.5432C81.9914 48.5432 81.5715 48.6459 81.2041 48.8514C80.8472 49.0568 80.5637 49.3393 80.3538 49.6989C80.1544 50.0584 80.0546 50.4847 80.0546 50.9778L79.8499 49.0979C80.1124 48.5124 80.5165 48.0501 81.0624 47.7111C81.6082 47.3721 82.2433 47.2026 82.9676 47.2026C83.8284 47.2026 84.5054 47.4389 84.9988 47.9114C85.4921 48.384 85.7388 49.0106 85.7388 49.7913V55.2153H84.117Z" fill="black"/>
<path d="M91.6704 58.3741L93.6071 54.0442L93.9378 53.5357L96.3784 47.3567H98.0789L93.3552 58.3741H91.6704ZM93.5284 55.2153L90.0958 47.3567H91.8751L94.788 54.4294L93.5284 55.2153Z" fill="black"/>
<path d="M102.702 55.3694C101.883 55.3694 101.164 55.1947 100.545 54.8455C99.9254 54.4859 99.4425 53.998 99.0961 53.3816C98.7497 52.755 98.5765 52.0462 98.5765 51.2552C98.5765 50.4539 98.7497 49.7502 99.0961 49.1442C99.453 48.5381 99.9359 48.0655 100.545 47.7265C101.164 47.3773 101.883 47.2026 102.702 47.2026C103.531 47.2026 104.255 47.3773 104.875 47.7265C105.494 48.0655 105.972 48.5381 106.308 49.1442C106.654 49.7502 106.827 50.4539 106.827 51.2552C106.827 52.0462 106.654 52.755 106.308 53.3816C105.972 53.998 105.494 54.4859 104.875 54.8455C104.255 55.1947 103.531 55.3694 102.702 55.3694ZM102.702 54.0596C103.195 54.0596 103.62 53.9415 103.977 53.7052C104.345 53.4689 104.633 53.1402 104.843 52.719C105.053 52.2978 105.158 51.8048 105.158 51.2398C105.158 50.3974 104.927 49.7348 104.465 49.252C104.014 48.7589 103.426 48.5124 102.702 48.5124C101.988 48.5124 101.4 48.7589 100.938 49.252C100.487 49.7451 100.261 50.4077 100.261 51.2398C100.261 51.8048 100.361 52.2978 100.56 52.719C100.77 53.1402 101.059 53.4689 101.426 53.7052C101.804 53.9415 102.229 54.0596 102.702 54.0596Z" fill="black"/>
<path d="M111.123 55.3694C110.588 55.3694 110.115 55.2615 109.706 55.0458C109.296 54.8198 108.976 54.5116 108.745 54.1212C108.525 53.7309 108.415 53.284 108.415 52.7807V47.3567H110.052V52.4108C110.052 52.9553 110.189 53.3611 110.462 53.6281C110.735 53.8952 111.123 54.0288 111.627 54.0288C112.078 54.0288 112.477 53.9261 112.823 53.7206C113.18 53.5151 113.459 53.2327 113.658 52.8731C113.868 52.5033 113.973 52.077 113.973 51.5942L114.178 53.4741C113.915 54.0493 113.511 54.5116 112.965 54.8609C112.43 55.1999 111.816 55.3694 111.123 55.3694ZM114.036 55.2153V53.3662H113.973V47.3567H115.595V55.2153H114.036Z" fill="black"/>
<path d="M124.459 55.3694C123.651 55.3694 122.937 55.1947 122.318 54.8455C121.709 54.4962 121.231 54.0134 120.885 53.397C120.538 52.7807 120.365 52.0719 120.365 51.2706C120.365 50.4591 120.533 49.7502 120.869 49.1442C121.215 48.5278 121.698 48.0501 122.318 47.7111C122.937 47.3721 123.646 47.2026 124.443 47.2026C125.22 47.2026 125.892 47.367 126.459 47.6957C127.036 48.0142 127.477 48.461 127.781 49.0363C128.096 49.6116 128.254 50.2947 128.254 51.0857C128.254 51.209 128.249 51.3271 128.238 51.4401C128.238 51.5428 128.228 51.6507 128.207 51.7637H121.467V50.5618H127.057L126.648 51.0395C126.648 50.1971 126.454 49.5551 126.065 49.1133C125.677 48.6716 125.136 48.4508 124.443 48.4508C123.698 48.4508 123.105 48.7024 122.664 49.2058C122.234 49.6989 122.018 50.3871 122.018 51.2706C122.018 52.1643 122.234 52.8628 122.664 53.3662C123.105 53.8696 123.714 54.1212 124.491 54.1212C124.963 54.1212 125.372 54.0288 125.719 53.8439C126.065 53.6487 126.322 53.3662 126.49 52.9964H128.033C127.771 53.736 127.325 54.3164 126.695 54.7376C126.076 55.1588 125.33 55.3694 124.459 55.3694Z" fill="black"/>
<path d="M134.812 55.2153C134.76 55.0201 134.723 54.8044 134.702 54.5681C134.692 54.3318 134.686 54.0442 134.686 53.7052H134.608V49.9608C134.608 49.4575 134.476 49.0825 134.214 48.836C133.962 48.5792 133.558 48.4508 133.001 48.4508C132.466 48.4508 132.036 48.5535 131.71 48.7589C131.395 48.9644 131.212 49.2572 131.159 49.6372H129.6C129.674 48.8976 130.015 48.3069 130.624 47.8652C131.233 47.4235 132.046 47.2026 133.064 47.2026C134.114 47.2026 134.901 47.444 135.426 47.9269C135.951 48.3994 136.214 49.0979 136.214 50.0225V53.7052C136.214 53.9415 136.229 54.1829 136.261 54.4294C136.292 54.676 136.34 54.9379 136.403 55.2153H134.812ZM132.041 55.3694C131.222 55.3694 130.571 55.1742 130.089 54.7838C129.606 54.3832 129.364 53.8439 129.364 53.1659C129.364 52.4673 129.616 51.9178 130.12 51.5171C130.634 51.1062 131.369 50.8289 132.324 50.685L134.97 50.269V51.3939L132.576 51.7637C132.041 51.8459 131.637 51.9845 131.364 52.1797C131.101 52.3749 130.97 52.6574 130.97 53.0272C130.97 53.3867 131.091 53.659 131.332 53.8439C131.584 54.0185 131.947 54.1058 132.419 54.1058C133.049 54.1058 133.568 53.9569 133.978 53.659C134.398 53.3611 134.608 52.9861 134.608 52.5341L134.812 53.6744C134.623 54.2188 134.287 54.64 133.805 54.9379C133.322 55.2255 132.734 55.3694 132.041 55.3694Z" fill="black"/>
<path d="M141.526 55.3694C140.592 55.3694 139.904 55.1588 139.463 54.7376C139.033 54.3061 138.818 53.6744 138.818 52.8423V45.5539L140.44 44.9529V52.8577C140.44 53.2686 140.55 53.5717 140.77 53.7668C140.991 53.962 141.348 54.0596 141.841 54.0596C142.03 54.0596 142.198 54.0442 142.345 54.0134C142.492 53.9826 142.618 53.9466 142.723 53.9055V55.1999C142.607 55.2512 142.445 55.2923 142.235 55.3231C142.025 55.3539 141.788 55.3694 141.526 55.3694ZM137.212 48.6357V47.3567H142.723V48.6357H137.212Z" fill="black"/>
<path d="M146.615 51.6558C146.615 51.1011 146.683 50.6388 146.82 50.269C146.967 49.8889 147.155 49.5705 147.386 49.3137C147.628 49.0568 147.875 48.8308 148.126 48.6357C148.389 48.4405 148.636 48.2504 148.866 48.0655C149.108 47.8806 149.302 47.6752 149.449 47.4492C149.596 47.2129 149.67 46.9355 149.67 46.6171C149.67 46.124 149.481 45.7336 149.103 45.446C148.725 45.1481 148.21 44.9992 147.56 44.9992C146.835 44.9992 146.247 45.1789 145.796 45.5385C145.345 45.8877 145.067 46.386 144.962 47.0331H143.355C143.439 46.3449 143.665 45.7491 144.033 45.2457C144.4 44.7423 144.888 44.352 145.497 44.0746C146.106 43.7973 146.804 43.6586 147.591 43.6586C148.336 43.6586 148.987 43.7819 149.544 44.0284C150.1 44.2647 150.536 44.6088 150.85 45.0608C151.165 45.5025 151.323 46.0213 151.323 46.6171C151.323 47.0794 151.244 47.4697 151.087 47.7882C150.94 48.1066 150.745 48.3788 150.504 48.6048C150.273 48.8206 150.021 49.026 149.748 49.2212C149.475 49.4061 149.218 49.6064 148.977 49.8221C148.746 50.0276 148.552 50.2793 148.394 50.5772C148.247 50.8648 148.174 51.2244 148.174 51.6558H146.615ZM146.41 55.2153V53.3046H148.363V55.2153H146.41Z" fill="black"/>
<path d="M41.3324 78.3286C41.3324 75.4919 43.6823 73.1923 46.581 73.1923H265.708C268.607 73.1923 270.957 75.4919 270.957 78.3286V111.715C270.957 114.551 268.607 116.851 265.708 116.851H46.581C43.6823 116.851 41.3324 114.551 41.3324 111.715V78.3286Z" fill="#F5E1C5" fill-opacity="0.63"/>
<path d="M41.3324 132.902C41.3324 130.065 43.6823 127.766 46.581 127.766H265.708C268.607 127.766 270.957 130.065 270.957 132.902V166.288C270.957 169.125 268.607 171.424 265.708 171.424H46.581C43.6823 171.424 41.3324 169.125 41.3324 166.288V132.902Z" fill="black"/>
<path d="M41.3324 186.833C41.3324 183.996 43.6823 181.697 46.581 181.697H265.708C268.607 181.697 270.957 183.996 270.957 186.833V220.219C270.957 223.056 268.607 225.355 265.708 225.355H46.581C43.6823 225.355 41.3324 223.056 41.3324 220.219V186.833Z" fill="#F5E1C5" fill-opacity="0.63"/>
<path d="M41.3324 240.764C41.3324 237.928 43.6823 235.628 46.581 235.628H265.708C268.607 235.628 270.957 237.928 270.957 240.764V274.15C270.957 276.987 268.607 279.287 265.708 279.287H46.581C43.6823 279.287 41.3324 276.987 41.3324 274.15V240.764Z" fill="#F5E1C5" fill-opacity="0.63"/>
<path d="M89.8816 304.326C89.8816 300.426 93.1127 297.264 97.0984 297.264H214.535C218.521 297.264 221.752 300.426 221.752 304.326V333.86C221.752 337.76 218.521 340.922 214.535 340.922H97.0984C93.1127 340.922 89.8816 337.76 89.8816 333.86V304.326Z" fill="black"/>
<path d="M57.9546 102.084V89.6542L58.3535 89.9007C58.1576 90.3116 57.8497 90.702 57.4298 91.0718C57.0099 91.4279 56.52 91.7361 55.9602 91.9963C55.4003 92.2566 54.7985 92.4415 54.1547 92.5511V89.9829C54.7145 89.9007 55.2814 89.7227 55.8552 89.4487C56.429 89.1748 56.9469 88.8529 57.4088 88.4831C57.8706 88.0996 58.1996 87.7024 58.3955 87.2915H60.6209V102.084H57.9546Z" fill="black"/>
<path d="M62.4827 97.5846V95.4068H70.0196V97.5846H62.4827Z" fill="black"/>
<path d="M70.3783 102.084V99.9679C71.8059 98.8173 72.9956 97.8243 73.9473 96.9888C74.9131 96.1396 75.6828 95.3932 76.2567 94.7494C76.8305 94.1057 77.2364 93.5167 77.4744 92.9825C77.7263 92.4346 77.8522 91.9005 77.8522 91.38C77.8522 90.6951 77.6563 90.161 77.2644 89.7775C76.8725 89.3939 76.3267 89.2022 75.6269 89.2022C74.8991 89.2022 74.3042 89.4145 73.8423 89.8391C73.3805 90.25 73.1005 90.8321 73.0026 91.5854H70.2313C70.3853 90.2021 70.9521 89.1063 71.9319 88.2982C72.9116 87.4901 74.1853 87.086 75.7528 87.086C77.3064 87.086 78.5241 87.4832 79.4058 88.2777C80.3016 89.0584 80.7495 90.1473 80.7495 91.5443C80.7495 92.2429 80.6235 92.9209 80.3716 93.5783C80.1336 94.2221 79.7277 94.9001 79.1539 95.6123C78.594 96.3108 77.8382 97.0847 76.8865 97.9339C75.9488 98.7694 74.7731 99.7213 73.3595 100.79L72.7087 99.9679H81.0224V102.084H70.3783Z" fill="black"/>
<path d="M90.9946 102.289C89.5111 102.289 88.3284 101.988 87.4466 101.386C86.5649 100.769 86.082 99.9199 85.998 98.8379H88.4124C88.4823 99.3721 88.7413 99.7761 89.1891 100.05C89.637 100.324 90.2389 100.461 90.9946 100.461C91.6805 100.461 92.1913 100.358 92.5272 100.153C92.8771 99.9336 93.0521 99.6255 93.0521 99.2283C93.0521 98.9406 92.9541 98.7078 92.7582 98.5297C92.5622 98.338 92.1913 98.1804 91.6455 98.0572L89.9239 97.6668C88.7483 97.4203 87.8735 97.0368 87.2997 96.5163C86.7398 95.9821 86.4599 95.3178 86.4599 94.5234C86.4599 93.5509 86.8378 92.7908 87.5936 92.2429C88.3634 91.6813 89.4201 91.4005 90.7637 91.4005C92.0933 91.4005 93.157 91.6813 93.9548 92.2429C94.7666 92.7908 95.2145 93.5509 95.2985 94.5234H92.8841C92.8142 94.0988 92.5902 93.7769 92.2123 93.5578C91.8484 93.3386 91.3446 93.229 90.7007 93.229C90.0989 93.229 89.644 93.3249 89.3361 93.5167C89.0282 93.6947 88.8742 93.9618 88.8742 94.3179C88.8742 94.5919 88.9932 94.8247 89.2311 95.0165C89.4691 95.1945 89.868 95.3521 90.4278 95.489L92.2753 95.8999C93.325 96.1328 94.1158 96.5368 94.6476 97.1121C95.1935 97.6874 95.4664 98.3654 95.4664 99.1461C95.4664 100.146 95.0745 100.92 94.2907 101.468C93.507 102.016 92.4083 102.289 90.9946 102.289Z" fill="black"/>
<path d="M97.2749 102.084V87.2915H99.9201V102.084H97.2749Z" fill="black"/>
<path d="M102.728 102.084V91.606H105.374V102.084H102.728ZM102.602 89.8802V87.0244H105.479V89.8802H102.602Z" fill="black"/>
<path d="M112.781 102.289C111.703 102.289 110.751 102.057 109.926 101.591C109.114 101.125 108.47 100.482 107.994 99.6597C107.532 98.8242 107.301 97.8791 107.301 96.8245C107.301 95.7698 107.532 94.8384 107.994 94.0303C108.47 93.2085 109.114 92.5648 109.926 92.0991C110.751 91.6334 111.703 91.4005 112.781 91.4005C113.663 91.4005 114.46 91.5649 115.174 91.8936C115.888 92.2086 116.476 92.6606 116.938 93.2496C117.4 93.8249 117.693 94.496 117.819 95.263H115.279C115.125 94.7015 114.831 94.2632 114.397 93.9481C113.963 93.6331 113.439 93.4756 112.823 93.4756C112.249 93.4756 111.752 93.6126 111.332 93.8865C110.926 94.1604 110.611 94.5508 110.387 95.0576C110.163 95.5644 110.052 96.1533 110.052 96.8245C110.052 97.5093 110.163 98.1051 110.387 98.6119C110.611 99.1187 110.933 99.5159 111.353 99.8035C111.773 100.077 112.263 100.214 112.823 100.214C113.439 100.214 113.963 100.057 114.397 99.7419C114.831 99.4269 115.125 98.9886 115.279 98.427H117.819C117.693 99.194 117.393 99.872 116.917 100.461C116.455 101.036 115.867 101.488 115.153 101.817C114.453 102.132 113.663 102.289 112.781 102.289Z" fill="black"/>
<path d="M124.471 102.289C123.337 102.289 122.344 102.057 121.49 101.591C120.65 101.125 119.992 100.482 119.516 99.6597C119.054 98.8379 118.824 97.8928 118.824 96.8245C118.824 95.7561 119.054 94.8179 119.516 94.0098C119.992 93.188 120.65 92.5511 121.49 92.0991C122.33 91.6334 123.309 91.4005 124.429 91.4005C125.493 91.4005 126.416 91.6197 127.2 92.058C127.984 92.4826 128.593 93.0852 129.027 93.866C129.461 94.6467 129.678 95.5575 129.678 96.5985C129.678 96.7902 129.671 96.9683 129.657 97.1326C129.643 97.297 129.622 97.4614 129.594 97.6257H120.461V95.8178H127.557L127.011 96.3108C127.011 95.3247 126.78 94.585 126.318 94.092C125.857 93.5989 125.213 93.3523 124.387 93.3523C123.491 93.3523 122.777 93.6537 122.246 94.2563C121.728 94.859 121.469 95.7287 121.469 96.8656C121.469 97.9887 121.728 98.8516 122.246 99.4543C122.777 100.043 123.526 100.338 124.492 100.338C125.052 100.338 125.542 100.235 125.962 100.03C126.381 99.8241 126.689 99.509 126.885 99.0844H129.384C129.034 100.071 128.439 100.851 127.599 101.427C126.773 102.002 125.731 102.289 124.471 102.289Z" fill="black"/>
<path d="M135.812 102.289C134.329 102.289 133.146 101.988 132.264 101.386C131.383 100.769 130.9 99.9199 130.816 98.8379H133.23C133.3 99.3721 133.559 99.7761 134.007 100.05C134.455 100.324 135.057 100.461 135.812 100.461C136.498 100.461 137.009 100.358 137.345 100.153C137.695 99.9336 137.87 99.6255 137.87 99.2283C137.87 98.9406 137.772 98.7078 137.576 98.5297C137.38 98.338 137.009 98.1804 136.463 98.0572L134.742 97.6668C133.566 97.4203 132.691 97.0368 132.117 96.5163C131.558 95.9821 131.278 95.3178 131.278 94.5234C131.278 93.5509 131.656 92.7908 132.411 92.2429C133.181 91.6813 134.238 91.4005 135.582 91.4005C136.911 91.4005 137.975 91.6813 138.773 92.2429C139.584 92.7908 140.032 93.5509 140.116 94.5234H137.702C137.632 94.0988 137.408 93.7769 137.03 93.5578C136.666 93.3386 136.162 93.229 135.519 93.229C134.917 93.229 134.462 93.3249 134.154 93.5167C133.846 93.6947 133.692 93.9618 133.692 94.3179C133.692 94.5919 133.811 94.8247 134.049 95.0165C134.287 95.1945 134.686 95.3521 135.246 95.489L137.093 95.8999C138.143 96.1328 138.934 96.5368 139.465 97.1121C140.011 97.6874 140.284 98.3654 140.284 99.1461C140.284 100.146 139.892 100.92 139.109 101.468C138.325 102.016 137.226 102.289 135.812 102.289Z" fill="black"/>
<path d="M60.033 156.863C58.9973 156.863 58.0666 156.678 57.2408 156.308C56.429 155.938 55.7642 155.39 55.2464 154.664C54.7425 153.938 54.4486 153.062 54.3646 152.035H57.0939C57.2198 152.939 57.5277 153.617 58.0176 154.069C58.5075 154.521 59.1583 154.747 59.9701 154.747C60.6979 154.747 61.2857 154.548 61.7336 154.151C62.1955 153.754 62.4264 153.185 62.4264 152.446C62.4264 151.706 62.2025 151.11 61.7546 150.658C61.3207 150.206 60.6349 149.98 59.6971 149.98H58.1646V147.905H59.6342C60.4599 147.905 61.0688 147.713 61.4607 147.33C61.8665 146.933 62.0695 146.426 62.0695 145.809C62.0695 145.193 61.8875 144.7 61.5236 144.33C61.1737 143.96 60.6349 143.775 59.9071 143.775C59.2353 143.775 58.6544 143.974 58.1646 144.371C57.6887 144.755 57.4018 145.33 57.3038 146.097H54.5326C54.6445 145.179 54.9314 144.392 55.3933 143.734C55.8692 143.077 56.499 142.57 57.2828 142.214C58.0666 141.844 58.9693 141.659 59.9911 141.659C60.9988 141.659 61.8735 141.824 62.6153 142.152C63.3571 142.467 63.931 142.919 64.3369 143.508C64.7568 144.084 64.9667 144.775 64.9667 145.583C64.9667 146.282 64.8057 146.891 64.4838 147.412C64.1619 147.932 63.742 148.343 63.2242 148.645C62.7203 148.932 62.1885 149.076 61.6286 149.076L61.5656 148.645C62.3494 148.645 63.0212 148.823 63.5811 149.179C64.1409 149.521 64.5678 149.987 64.8617 150.576C65.1696 151.165 65.3236 151.829 65.3236 152.569C65.3236 153.432 65.0927 154.192 64.6308 154.849C64.1829 155.493 63.5601 155.993 62.7623 156.349C61.9645 156.692 61.0548 156.863 60.033 156.863Z" fill="var(--fill-0, white)"/>
<path d="M66.8291 152.158V149.98H74.3661V152.158H66.8291Z" fill="var(--fill-0, white)"/>
<path d="M83.1389 156.657V152.754L83.2648 152.343V143.899L84.3145 144.351L78.1002 152.507L76.9036 151.542H87.5686V153.658H75.7279V151.624L83.2228 141.865H85.9311V156.657H83.1389Z" fill="var(--fill-0, white)"/>
<path d="M97.6374 156.863C96.1538 156.863 94.9711 156.561 94.0893 155.959C93.2076 155.342 92.7247 154.493 92.6407 153.411H95.0551C95.125 153.945 95.384 154.349 95.8319 154.623C96.2797 154.897 96.8816 155.034 97.6374 155.034C98.3232 155.034 98.834 154.931 99.1699 154.726C99.5198 154.507 99.6948 154.199 99.6948 153.801C99.6948 153.514 99.5968 153.281 99.4009 153.103C99.2049 152.911 98.834 152.754 98.2882 152.63L96.5666 152.24C95.391 151.994 94.5162 151.61 93.9424 151.09C93.3825 150.555 93.1026 149.891 93.1026 149.097C93.1026 148.124 93.4805 147.364 94.2363 146.816C95.0061 146.255 96.0628 145.974 97.4064 145.974C98.7361 145.974 99.7998 146.255 100.598 146.816C101.409 147.364 101.857 148.124 101.941 149.097H99.5268C99.4569 148.672 99.2329 148.35 98.855 148.131C98.4911 147.912 97.9873 147.802 97.3434 147.802C96.7416 147.802 96.2867 147.898 95.9788 148.09C95.6709 148.268 95.5169 148.535 95.5169 148.891C95.5169 149.165 95.6359 149.398 95.8738 149.59C96.1118 149.768 96.5107 149.925 97.0705 150.062L98.918 150.473C99.9677 150.706 100.758 151.11 101.29 151.685C101.836 152.261 102.109 152.939 102.109 153.719C102.109 154.719 101.717 155.493 100.933 156.041C100.15 156.589 99.051 156.863 97.6374 156.863Z" fill="var(--fill-0, white)"/>
<path d="M103.918 156.657V141.865H106.563V156.657H103.918Z" fill="var(--fill-0, white)"/>
<path d="M109.371 156.657V146.179H112.016V156.657H109.371ZM109.245 144.453V141.598H112.121V144.453H109.245Z" fill="var(--fill-0, white)"/>
<path d="M119.423 156.863C118.346 156.863 117.394 156.63 116.568 156.164C115.756 155.698 115.113 155.055 114.637 154.233C114.175 153.397 113.944 152.452 113.944 151.398C113.944 150.343 114.175 149.412 114.637 148.604C115.113 147.782 115.756 147.138 116.568 146.672C117.394 146.207 118.346 145.974 119.423 145.974C120.305 145.974 121.103 146.138 121.817 146.467C122.531 146.782 123.118 147.234 123.58 147.823C124.042 148.398 124.336 149.069 124.462 149.836H121.922C121.768 149.275 121.474 148.836 121.04 148.521C120.606 148.206 120.081 148.049 119.465 148.049C118.892 148.049 118.395 148.186 117.975 148.46C117.569 148.734 117.254 149.124 117.03 149.631C116.806 150.138 116.694 150.727 116.694 151.398C116.694 152.083 116.806 152.678 117.03 153.185C117.254 153.692 117.576 154.089 117.996 154.377C118.416 154.651 118.906 154.788 119.465 154.788C120.081 154.788 120.606 154.63 121.04 154.315C121.474 154 121.768 153.562 121.922 153H124.462C124.336 153.767 124.035 154.445 123.559 155.034C123.097 155.609 122.51 156.061 121.796 156.39C121.096 156.705 120.305 156.863 119.423 156.863Z" fill="var(--fill-0, white)"/>
<path d="M131.114 156.863C129.98 156.863 128.986 156.63 128.132 156.164C127.293 155.698 126.635 155.055 126.159 154.233C125.697 153.411 125.466 152.466 125.466 151.398C125.466 150.329 125.697 149.391 126.159 148.583C126.635 147.761 127.293 147.124 128.132 146.672C128.972 146.207 129.952 145.974 131.072 145.974C132.135 145.974 133.059 146.193 133.843 146.631C134.627 147.056 135.236 147.658 135.669 148.439C136.103 149.22 136.32 150.131 136.32 151.172C136.32 151.363 136.313 151.542 136.299 151.706C136.285 151.87 136.264 152.035 136.236 152.199H127.104V150.391H134.2L133.654 150.884C133.654 149.898 133.423 149.158 132.961 148.665C132.499 148.172 131.855 147.926 131.03 147.926C130.134 147.926 129.42 148.227 128.888 148.83C128.37 149.432 128.111 150.302 128.111 151.439C128.111 152.562 128.37 153.425 128.888 154.027C129.42 154.616 130.169 154.911 131.135 154.911C131.695 154.911 132.184 154.808 132.604 154.603C133.024 154.397 133.332 154.082 133.528 153.658H136.026C135.676 154.644 135.082 155.425 134.242 156C133.416 156.575 132.373 156.863 131.114 156.863Z" fill="var(--fill-0, white)"/>
<path d="M142.455 156.863C140.972 156.863 139.789 156.561 138.907 155.959C138.025 155.342 137.543 154.493 137.459 153.411H139.873C139.943 153.945 140.202 154.349 140.65 154.623C141.098 154.897 141.699 155.034 142.455 155.034C143.141 155.034 143.652 154.931 143.988 154.726C144.338 154.507 144.513 154.199 144.513 153.801C144.513 153.514 144.415 153.281 144.219 153.103C144.023 152.911 143.652 152.754 143.106 152.63L141.384 152.24C140.209 151.994 139.334 151.61 138.76 151.09C138.2 150.555 137.92 149.891 137.92 149.097C137.92 148.124 138.298 147.364 139.054 146.816C139.824 146.255 140.881 145.974 142.224 145.974C143.554 145.974 144.618 146.255 145.415 146.816C146.227 147.364 146.675 148.124 146.759 149.097H144.345C144.275 148.672 144.051 148.35 143.673 148.131C143.309 147.912 142.805 147.802 142.161 147.802C141.559 147.802 141.105 147.898 140.797 148.09C140.489 148.268 140.335 148.535 140.335 148.891C140.335 149.165 140.454 149.398 140.692 149.59C140.93 149.768 141.328 149.925 141.888 150.062L143.736 150.473C144.786 150.706 145.576 151.11 146.108 151.685C146.654 152.261 146.927 152.939 146.927 153.719C146.927 154.719 146.535 155.493 145.751 156.041C144.967 156.589 143.869 156.863 142.455 156.863Z" fill="var(--fill-0, white)"/>
<path d="M59.9491 210.794C58.4235 210.794 57.1778 210.404 56.2121 209.623C55.2464 208.842 54.6515 207.767 54.4276 206.397H57.1988C57.3248 207.123 57.6327 207.685 58.1226 208.082C58.6264 208.479 59.2143 208.678 59.8861 208.678C60.6279 208.678 61.2297 208.438 61.6916 207.959C62.1675 207.479 62.4054 206.74 62.4054 205.74C62.4054 204.767 62.1745 204.035 61.7126 203.541C61.2647 203.035 60.6629 202.781 59.9071 202.781C59.4172 202.781 58.9763 202.884 58.5844 203.089C58.1926 203.295 57.8986 203.583 57.7027 203.952H55.2254L55.9602 195.796H64.4208V197.912H57.0729L58.4165 197.542L57.9966 202.617L57.1568 202.473C57.4927 201.966 57.9266 201.562 58.4585 201.261C58.9903 200.96 59.6622 200.809 60.4739 200.809C61.4397 200.809 62.2794 201.014 62.9932 201.425C63.721 201.836 64.2879 202.411 64.6938 203.151C65.1137 203.877 65.3236 204.754 65.3236 205.781C65.3236 206.836 65.0997 207.74 64.6518 208.493C64.2039 209.232 63.5811 209.801 62.7833 210.198C61.9855 210.595 61.0408 210.794 59.9491 210.794Z" fill="black"/>
<path d="M70.0842 207.712V198.2H72.1416V207.712H70.0842ZM66.4942 203.932V202.001H75.6897V203.932H66.4942Z" fill="black"/>
<path d="M86.3612 210.794C84.8776 210.794 83.6949 210.493 82.8131 209.89C81.9314 209.274 81.4485 208.424 81.3645 207.342H83.7789C83.8488 207.876 84.1078 208.281 84.5556 208.554C85.0035 208.828 85.6054 208.965 86.3612 208.965C87.047 208.965 87.5578 208.863 87.8937 208.657C88.2436 208.438 88.4186 208.13 88.4186 207.733C88.4186 207.445 88.3206 207.212 88.1247 207.034C87.9287 206.842 87.5578 206.685 87.012 206.562L85.2904 206.171C84.1148 205.925 83.24 205.541 82.6662 205.021C82.1063 204.487 81.8264 203.822 81.8264 203.028C81.8264 202.055 82.2043 201.295 82.9601 200.747C83.7299 200.186 84.7866 199.905 86.1302 199.905C87.4598 199.905 88.5236 200.186 89.3213 200.747C90.1331 201.295 90.581 202.055 90.665 203.028H88.2506C88.1807 202.603 87.9567 202.281 87.5788 202.062C87.2149 201.843 86.7111 201.733 86.0672 201.733C85.4654 201.733 85.0105 201.829 84.7026 202.021C84.3947 202.199 84.2407 202.466 84.2407 202.822C84.2407 203.096 84.3597 203.329 84.5976 203.521C84.8356 203.699 85.2345 203.856 85.7943 203.993L87.6418 204.404C88.6915 204.637 89.4823 205.041 90.0141 205.617C90.56 206.192 90.8329 206.87 90.8329 207.651C90.8329 208.65 90.441 209.424 89.6572 209.972C88.8735 210.52 87.7748 210.794 86.3612 210.794Z" fill="black"/>
<path d="M92.6414 210.588V195.796H95.2867V210.588H92.6414Z" fill="black"/>
<path d="M98.095 210.588V200.11H100.74V210.588H98.095ZM97.969 198.385V195.529H100.845V198.385H97.969Z" fill="black"/>
<path d="M108.147 210.794C107.07 210.794 106.118 210.561 105.292 210.095C104.48 209.63 103.836 208.986 103.361 208.164C102.899 207.329 102.668 206.384 102.668 205.329C102.668 204.274 102.899 203.343 103.361 202.535C103.836 201.713 104.48 201.069 105.292 200.603C106.118 200.138 107.07 199.905 108.147 199.905C109.029 199.905 109.827 200.069 110.541 200.398C111.254 200.713 111.842 201.165 112.304 201.754C112.766 202.329 113.06 203 113.186 203.767H110.646C110.492 203.206 110.198 202.768 109.764 202.453C109.33 202.138 108.805 201.98 108.189 201.98C107.615 201.98 107.119 202.117 106.699 202.391C106.293 202.665 105.978 203.055 105.754 203.562C105.53 204.069 105.418 204.658 105.418 205.329C105.418 206.014 105.53 206.61 105.754 207.116C105.978 207.623 106.3 208.02 106.72 208.308C107.14 208.582 107.629 208.719 108.189 208.719C108.805 208.719 109.33 208.561 109.764 208.246C110.198 207.931 110.492 207.493 110.646 206.931H113.186C113.06 207.698 112.759 208.376 112.283 208.965C111.821 209.541 111.233 209.993 110.52 210.321C109.82 210.636 109.029 210.794 108.147 210.794Z" fill="black"/>
<path d="M119.837 210.794C118.704 210.794 117.71 210.561 116.856 210.095C116.017 209.63 115.359 208.986 114.883 208.164C114.421 207.342 114.19 206.397 114.19 205.329C114.19 204.261 114.421 203.322 114.883 202.514C115.359 201.692 116.017 201.055 116.856 200.603C117.696 200.138 118.676 199.905 119.795 199.905C120.859 199.905 121.783 200.124 122.567 200.562C123.351 200.987 123.959 201.59 124.393 202.37C124.827 203.151 125.044 204.062 125.044 205.103C125.044 205.295 125.037 205.473 125.023 205.637C125.009 205.801 124.988 205.966 124.96 206.13H115.828V204.322H122.924L122.378 204.815C122.378 203.829 122.147 203.089 121.685 202.596C121.223 202.103 120.579 201.857 119.753 201.857C118.858 201.857 118.144 202.158 117.612 202.761C117.094 203.363 116.835 204.233 116.835 205.37C116.835 206.493 117.094 207.356 117.612 207.959C118.144 208.548 118.893 208.842 119.858 208.842C120.418 208.842 120.908 208.739 121.328 208.534C121.748 208.328 122.056 208.013 122.252 207.589H124.75C124.4 208.575 123.805 209.356 122.966 209.931C122.14 210.506 121.097 210.794 119.837 210.794Z" fill="black"/>
<path d="M131.179 210.794C129.695 210.794 128.513 210.493 127.631 209.89C126.749 209.274 126.266 208.424 126.182 207.342H128.597C128.667 207.876 128.926 208.281 129.373 208.554C129.821 208.828 130.423 208.965 131.179 208.965C131.865 208.965 132.376 208.863 132.712 208.657C133.061 208.438 133.236 208.13 133.236 207.733C133.236 207.445 133.138 207.212 132.942 207.034C132.747 206.842 132.376 206.685 131.83 206.562L130.108 206.171C128.933 205.925 128.058 205.541 127.484 205.021C126.924 204.487 126.644 203.822 126.644 203.028C126.644 202.055 127.022 201.295 127.778 200.747C128.548 200.186 129.604 199.905 130.948 199.905C132.278 199.905 133.341 200.186 134.139 200.747C134.951 201.295 135.399 202.055 135.483 203.028H133.068C132.998 202.603 132.775 202.281 132.397 202.062C132.033 201.843 131.529 201.733 130.885 201.733C130.283 201.733 129.828 201.829 129.52 202.021C129.212 202.199 129.059 202.466 129.059 202.822C129.059 203.096 129.177 203.329 129.415 203.521C129.653 203.699 130.052 203.856 130.612 203.993L132.46 204.404C133.509 204.637 134.3 205.041 134.832 205.617C135.378 206.192 135.651 206.87 135.651 207.651C135.651 208.65 135.259 209.424 134.475 209.972C133.691 210.52 132.593 210.794 131.179 210.794Z" fill="black"/>
<path d="M56.7579 265.162V263.025H60.6629C61.8106 263.025 62.7903 262.799 63.6021 262.347C64.4139 261.895 65.0297 261.265 65.4496 260.457C65.8834 259.649 66.1004 258.724 66.1004 257.683C66.1004 256.656 65.8834 255.752 65.4496 254.971C65.0297 254.191 64.4139 253.588 63.6021 253.163C62.8043 252.725 61.8246 252.506 60.6629 252.506H56.7999V250.369H60.6629C62.3144 250.369 63.756 250.67 64.9877 251.273C66.2194 251.876 67.1711 252.732 67.8429 253.841C68.5287 254.937 68.8716 256.231 68.8716 257.724C68.8716 259.217 68.5287 260.525 67.8429 261.648C67.1571 262.758 66.1984 263.621 64.9667 264.237C63.749 264.854 62.3214 265.162 60.6839 265.162H56.7579ZM55.0994 265.162V250.369H57.8287V265.162H55.0994Z" fill="black"/>
<path d="M75.8617 265.367C74.728 265.367 73.7273 265.134 72.8595 264.669C72.0058 264.203 71.341 263.559 70.8651 262.737C70.3892 261.902 70.1513 260.95 70.1513 259.882C70.1513 258.813 70.3892 257.875 70.8651 257.067C71.341 256.259 72.0058 255.629 72.8595 255.177C73.7273 254.711 74.728 254.478 75.8617 254.478C77.0094 254.478 78.0101 254.711 78.8639 255.177C79.7177 255.629 80.3825 256.259 80.8584 257.067C81.3342 257.875 81.5722 258.813 81.5722 259.882C81.5722 260.95 81.3272 261.902 80.8374 262.737C80.3615 263.559 79.6967 264.203 78.8429 264.669C77.9891 265.134 76.9954 265.367 75.8617 265.367ZM75.8617 263.292C76.4216 263.292 76.9254 263.155 77.3733 262.881C77.8212 262.594 78.1711 262.196 78.423 261.69C78.675 261.169 78.8009 260.56 78.8009 259.861C78.8009 258.834 78.521 258.026 77.9612 257.437C77.4153 256.848 76.7155 256.553 75.8617 256.553C75.008 256.553 74.3012 256.848 73.7413 257.437C73.1815 258.026 72.9015 258.834 72.9015 259.861C72.9015 260.56 73.0275 261.169 73.2794 261.69C73.5454 262.196 73.8953 262.594 74.3292 262.881C74.777 263.155 75.2879 263.292 75.8617 263.292Z" fill="black"/>
<path d="M83.5179 265.162V254.684H86.1002V257.149H86.1632V265.162H83.5179ZM91.0338 265.162V258.546C91.0338 257.902 90.8659 257.416 90.53 257.087C90.1941 256.759 89.7042 256.594 89.0604 256.594C88.5005 256.594 87.9967 256.718 87.5488 256.964C87.1149 257.211 86.772 257.553 86.5201 257.991C86.2821 258.43 86.1632 258.936 86.1632 259.512L85.8903 257.005C86.2542 256.238 86.786 255.629 87.4858 255.177C88.1856 254.711 89.0254 254.478 90.0051 254.478C91.1668 254.478 92.0696 254.8 92.7134 255.444C93.3712 256.088 93.7001 256.944 93.7001 258.012V265.162H91.0338Z" fill="black"/>
<path d="M94.8942 255.814V254.54C95.524 254.458 95.9439 254.252 96.1538 253.923C96.3638 253.581 96.4687 253.102 96.4687 252.485L97.4974 252.691H94.9362V249.938H98.0013V251.992C98.0013 252.978 97.7494 253.821 97.2455 254.519C96.7556 255.218 95.9719 255.649 94.8942 255.814Z" fill="black"/>
<path d="M104.727 265.367C103.412 265.367 102.439 265.066 101.809 264.463C101.193 263.847 100.885 262.929 100.885 261.71V252.3L103.552 251.335V261.772C103.552 262.279 103.692 262.655 103.972 262.902C104.251 263.148 104.692 263.272 105.294 263.272C105.532 263.272 105.742 263.258 105.924 263.23C106.12 263.189 106.302 263.141 106.47 263.087V265.1C106.302 265.182 106.064 265.244 105.756 265.285C105.448 265.34 105.105 265.367 104.727 265.367ZM98.828 256.718V254.684H106.47V256.718H98.828Z" fill="black"/>
<path d="M112.508 265.162V250.225H115.153V265.162H112.508ZM119.415 265.162L114.544 259.717L119.268 254.684H122.459L117.001 260.19L117.148 259.224L122.669 265.162H119.415Z" fill="black"/>
<path d="M124.215 265.162V254.684H126.797V257.149H126.86V265.162H124.215ZM131.731 265.162V258.546C131.731 257.902 131.563 257.416 131.227 257.087C130.891 256.759 130.401 256.594 129.757 256.594C129.197 256.594 128.694 256.718 128.246 256.964C127.812 257.211 127.469 257.553 127.217 257.991C126.979 258.43 126.86 258.936 126.86 259.512L126.587 257.005C126.951 256.238 127.483 255.629 128.183 255.177C128.882 254.711 129.722 254.478 130.702 254.478C131.864 254.478 132.766 254.8 133.41 255.444C134.068 256.088 134.397 256.944 134.397 258.012V265.162H131.731Z" fill="black"/>
<path d="M141.94 265.367C140.807 265.367 139.806 265.134 138.938 264.669C138.084 264.203 137.42 263.559 136.944 262.737C136.468 261.902 136.23 260.95 136.23 259.882C136.23 258.813 136.468 257.875 136.944 257.067C137.42 256.259 138.084 255.629 138.938 255.177C139.806 254.711 140.807 254.478 141.94 254.478C143.088 254.478 144.089 254.711 144.942 255.177C145.796 255.629 146.461 256.259 146.937 257.067C147.413 257.875 147.651 258.813 147.651 259.882C147.651 260.95 147.406 261.902 146.916 262.737C146.44 263.559 145.775 264.203 144.921 264.669C144.068 265.134 143.074 265.367 141.94 265.367ZM141.94 263.292C142.5 263.292 143.004 263.155 143.452 262.881C143.9 262.594 144.25 262.196 144.502 261.69C144.754 261.169 144.88 260.56 144.88 259.861C144.88 258.834 144.6 258.026 144.04 257.437C143.494 256.848 142.794 256.553 141.94 256.553C141.087 256.553 140.38 256.848 139.82 257.437C139.26 258.026 138.98 258.834 138.98 259.861C138.98 260.56 139.106 261.169 139.358 261.69C139.624 262.196 139.974 262.594 140.408 262.881C140.856 263.155 141.366 263.292 141.94 263.292Z" fill="black"/>
<path d="M151.534 265.162L148.259 254.684H151.03L152.962 262.552H152.773L155.145 254.684H157.56L159.974 262.552H159.764L161.675 254.684H164.383L161.108 265.162H158.63L156.216 257.375H156.426L154.012 265.162H151.534Z" fill="black"/>
<path d="M133.382 324.368C131.912 324.368 130.736 324.049 129.855 323.413C128.973 322.765 128.459 321.856 128.312 320.685H130.642C130.715 321.281 131.009 321.753 131.524 322.103C132.038 322.442 132.694 322.611 133.492 322.611C134.143 322.611 134.641 322.498 134.988 322.272C135.345 322.046 135.523 321.743 135.523 321.363C135.523 321.004 135.418 320.716 135.208 320.5C134.998 320.274 134.636 320.094 134.122 319.961L132.012 319.391C130.931 319.093 130.138 318.687 129.634 318.173C129.141 317.65 128.894 316.997 128.894 316.217C128.894 315.549 129.067 314.974 129.414 314.491C129.771 313.998 130.269 313.623 130.91 313.366C131.55 313.099 132.301 312.965 133.161 312.965C134.484 312.965 135.539 313.273 136.326 313.89C137.113 314.496 137.56 315.302 137.665 316.309H135.334C135.229 315.765 134.972 315.364 134.563 315.107C134.164 314.85 133.649 314.722 133.02 314.722C132.474 314.722 132.038 314.825 131.713 315.03C131.387 315.236 131.225 315.513 131.225 315.862C131.225 316.129 131.314 316.376 131.492 316.602C131.671 316.817 132.043 317.002 132.61 317.156L134.72 317.727C135.833 318.025 136.631 318.435 137.113 318.959C137.607 319.473 137.853 320.125 137.853 320.916C137.853 322.026 137.46 322.878 136.673 323.474C135.885 324.07 134.788 324.368 133.382 324.368Z" fill="var(--fill-0, white)"/>
<path d="M141.717 324.383C141.15 324.383 140.662 324.265 140.253 324.029C139.854 323.782 139.55 323.459 139.34 323.058C139.13 322.647 139.025 322.19 139.025 321.687V316.371H141.387V321.24C141.387 321.671 141.497 321.995 141.717 322.211C141.938 322.426 142.247 322.534 142.646 322.534C143.003 322.534 143.318 322.452 143.591 322.288C143.864 322.123 144.079 321.897 144.237 321.61C144.405 321.312 144.489 320.973 144.489 320.593L144.693 322.488C144.431 323.053 144.048 323.51 143.544 323.859C143.04 324.209 142.431 324.383 141.717 324.383ZM144.536 324.229V322.38H144.489V316.371H146.85V324.229H144.536Z" fill="var(--fill-0, white)"/>
<path d="M153.642 324.383C152.876 324.383 152.251 324.209 151.768 323.859C151.296 323.51 151.018 323.032 150.934 322.426L151.06 322.411V324.229H148.745V313.135H151.107V318.112L150.965 318.081C151.081 317.506 151.385 317.054 151.878 316.725C152.382 316.386 153.012 316.217 153.768 316.217C154.492 316.217 155.117 316.386 155.642 316.725C156.177 317.054 156.586 317.521 156.87 318.127C157.164 318.733 157.311 319.447 157.311 320.269C157.311 321.101 157.159 321.825 156.854 322.442C156.55 323.058 156.125 323.536 155.579 323.875C155.033 324.214 154.387 324.383 153.642 324.383ZM152.981 322.534C153.537 322.534 153.988 322.339 154.335 321.949C154.681 321.558 154.854 321.004 154.854 320.284C154.854 319.565 154.676 319.016 154.319 318.636C153.973 318.256 153.516 318.066 152.949 318.066C152.403 318.066 151.952 318.261 151.595 318.651C151.249 319.031 151.075 319.581 151.075 320.3C151.075 321.019 151.249 321.574 151.595 321.964C151.952 322.344 152.414 322.534 152.981 322.534Z" fill="var(--fill-0, white)"/>
<path d="M158.632 324.229V316.371H160.947V318.22H160.994V324.229H158.632ZM164.033 324.229V319.237C164.033 318.836 163.923 318.543 163.702 318.358C163.492 318.163 163.193 318.066 162.805 318.066C162.469 318.066 162.159 318.143 161.876 318.297C161.603 318.441 161.388 318.651 161.23 318.929C161.073 319.196 160.994 319.514 160.994 319.884L160.789 318.112C161.052 317.537 161.43 317.079 161.923 316.74C162.427 316.391 163.031 316.217 163.734 316.217C164.574 316.217 165.224 316.448 165.686 316.91C166.159 317.372 166.395 317.953 166.395 318.651V324.229H164.033ZM169.434 324.229V319.237C169.434 318.836 169.324 318.543 169.103 318.358C168.893 318.163 168.594 318.066 168.206 318.066C167.87 318.066 167.56 318.143 167.277 318.297C167.004 318.441 166.789 318.651 166.631 318.929C166.474 319.196 166.395 319.514 166.395 319.884L166.033 318.112C166.295 317.537 166.684 317.079 167.198 316.74C167.723 316.391 168.353 316.217 169.087 316.217C169.959 316.217 170.625 316.458 171.087 316.941C171.559 317.413 171.796 318.035 171.796 318.805V324.229H169.434Z" fill="var(--fill-0, white)"/>
<path d="M173.501 324.229V316.371H175.863V324.229H173.501ZM173.423 315.323V312.827H175.942V315.323H173.423Z" fill="var(--fill-0, white)"/>
<path d="M181.433 324.399C180.404 324.399 179.638 324.157 179.134 323.674C178.641 323.181 178.394 322.437 178.394 321.44V314.614L180.756 313.751V321.517C180.756 321.866 180.856 322.128 181.055 322.303C181.254 322.478 181.564 322.565 181.984 322.565C182.141 322.565 182.288 322.55 182.425 322.519C182.561 322.488 182.698 322.452 182.834 322.411V324.168C182.698 324.239 182.504 324.296 182.252 324.337C182.01 324.378 181.737 324.399 181.433 324.399ZM176.898 318.127V316.371H182.834V318.127H176.898Z" fill="var(--fill-0, white)"/>
</g>
<defs>
<filter id="filter0_d_22_9" x="0" y="0" width="326.289" height="367.121" filterUnits="userSpaceOnUse" color-interpolation-filters="sRGB">
<feFlood flood-opacity="0" result="BackgroundImageFix"/>
<feColorMatrix in="SourceAlpha" type="matrix" values="0 0 0 0 0 0 0 0 0 0 0 0 0 0 0 0 0 0 127 0" result="hardAlpha"/>
<feOffset dx="10" dy="10"/>
<feGaussianBlur stdDeviation="2"/>
<feComposite in2="hardAlpha" operator="out"/>
<feColorMatrix type="matrix" values="0 0 0 0 0 0 0 0 0 0 0 0 0 0 0 0 0 0 0.25 0"/>
<feBlend mode="normal" in2="BackgroundImageFix" result="effect1_dropShadow_22_9"/>
<feBlend mode="normal" in="SourceGraphic" in2="effect1_dropShadow_22_9" result="shape"/>
</filter>
</defs>
</svg>
