<svg preserveAspectRatio="none" width="100%" height="100%" overflow="visible" style="display: block;" viewBox="0 0 339.337 290.721" fill="none" xmlns="http://www.w3.org/2000/svg">
<g id="Vector">
<path d="M0 10.2093C0 4.57084 4.57085 0 10.2093 0H329.128C334.766 0 339.337 4.57085 339.337 10.2093V280.512C339.337 286.151 334.766 290.721 329.128 290.721H10.2093C4.57086 290.721 0 286.151 0 280.512V10.2093Z" fill="#FFEACD"/>
<path d="M13.908 42.7817V40.9149H16.7393C17.5483 40.9149 18.2328 40.7541 18.7929 40.4326C19.3633 40.1008 19.7937 39.6496 20.0841 39.0792C20.3849 38.5088 20.5352 37.8554 20.5352 37.119C20.5352 36.393 20.39 35.7552 20.0996 35.2055C19.8092 34.6558 19.3788 34.2254 18.8084 33.9142C18.2484 33.6031 17.5587 33.4475 16.7393 33.4475H13.9546V31.5807H16.7393C17.9943 31.5807 19.0884 31.8089 20.0219 32.2652C20.9553 32.7112 21.6761 33.3542 22.1843 34.1943C22.7028 35.024 22.9621 36.0093 22.9621 37.1501C22.9621 38.291 22.7028 39.2866 22.1843 40.137C21.6657 40.9771 20.9397 41.6305 20.0063 42.0972C19.0833 42.5536 17.9994 42.7817 16.7549 42.7817H13.908ZM12.4456 42.7817V31.5807H14.8414V42.7817H12.4456Z" fill="var(--fill-0, black)"/>
<path d="M24.2385 42.7817V34.8477H26.5721V42.7817H24.2385ZM24.1607 33.7898V31.2696H26.6499V33.7898H24.1607Z" fill="var(--fill-0, black)"/>
<path d="M33.9869 42.7817V41.0238L34.1425 41.0549C34.0388 41.6253 33.7277 42.0817 33.2091 42.4239C32.7009 42.7662 32.089 42.9373 31.3734 42.9373C30.6474 42.9373 30.0147 42.7714 29.4754 42.4395C28.9465 42.0972 28.5368 41.6201 28.2464 41.0082C27.956 40.3963 27.8108 39.6755 27.8108 38.8458C27.8108 38.0057 27.9612 37.2746 28.262 36.6523C28.5627 36.03 28.9828 35.5477 29.5221 35.2055C30.0718 34.8632 30.7096 34.6921 31.4356 34.6921C32.1927 34.6921 32.8046 34.8684 33.2713 35.221C33.7484 35.5737 34.0284 36.0559 34.1114 36.6678L33.9403 36.6834V31.5807H36.2738V42.7817H33.9869ZM32.1201 41.0705C32.6698 41.0705 33.1157 40.8786 33.458 40.4949C33.8003 40.1007 33.9714 39.5407 33.9714 38.8147C33.9714 38.0887 33.7951 37.5338 33.4424 37.1501C33.1002 36.756 32.649 36.5589 32.089 36.5589C31.5497 36.5589 31.1037 36.756 30.7511 37.1501C30.4088 37.5442 30.2377 38.1043 30.2377 38.8303C30.2377 39.5563 30.4088 40.1111 30.7511 40.4949C31.1037 40.8786 31.56 41.0705 32.1201 41.0705Z" fill="var(--fill-0, black)"/>
<path d="M41.1021 42.7817V34.8477H43.4356V42.7817H41.1021ZM41.0243 33.7898V31.2696H43.5134V33.7898H41.0243Z" fill="var(--fill-0, black)"/>
<path d="M48.9384 42.9529C47.922 42.9529 47.1649 42.7091 46.6671 42.2217C46.1796 41.7239 45.9359 40.9719 45.9359 39.9659V33.0742L48.2695 32.203V40.0437C48.2695 40.3963 48.368 40.6608 48.5651 40.8371C48.7621 41.0134 49.0681 41.1016 49.4829 41.1016C49.6385 41.1016 49.7837 41.086 49.9185 41.0549C50.0533 41.0238 50.1882 40.9875 50.323 40.946V42.7195C50.1882 42.7921 49.9963 42.8492 49.7474 42.8906C49.5088 42.9321 49.2392 42.9529 48.9384 42.9529ZM44.458 36.6212V34.8477H50.323V36.6212H44.458Z" fill="var(--fill-0, black)"/>
<path d="M55.2908 42.7817V34.3187C55.2908 33.3646 55.5501 32.6438 56.0686 32.1563C56.5872 31.6689 57.3547 31.4251 58.3711 31.4251C58.5889 31.4251 58.7756 31.4355 58.9311 31.4562C59.0971 31.477 59.2578 31.5133 59.4134 31.5651V33.5098C59.3408 33.4787 59.2526 33.4579 59.1489 33.4475C59.0452 33.4268 58.9207 33.4164 58.7756 33.4164C58.3814 33.4164 58.091 33.5098 57.9044 33.6965C57.7177 33.8831 57.6243 34.1528 57.6243 34.5054V42.7817H55.2908ZM60.4246 42.7817V34.8477H62.7581V42.7817H60.4246ZM53.9684 36.7767V34.8477H60.9846V36.7767H53.9684ZM60.4246 33.9609V31.5807H62.7581V33.9609H60.4246Z" fill="var(--fill-0, black)"/>
<path d="M64.316 42.7817V31.5807H66.6496V42.7817H64.316Z" fill="var(--fill-0, black)"/>
<path d="M68.5091 42.7817V31.5807H70.8427V42.7817H68.5091Z" fill="var(--fill-0, black)"/>
<path d="M76.0692 45.9709L78.2628 41.1171L78.6672 40.4482L80.7208 34.8477H83.2099L78.4028 45.9709H76.0692ZM77.7494 42.6262L74.7002 34.8477H77.2204L79.7251 41.9417L77.7494 42.6262Z" fill="var(--fill-0, black)"/>
<path d="M87.6334 42.9373C86.7622 42.9373 85.9947 42.7662 85.331 42.4239C84.6776 42.0713 84.1642 41.5838 83.7908 40.9616C83.4278 40.3289 83.2463 39.6029 83.2463 38.7836C83.2463 37.9643 83.4278 37.2486 83.7908 36.6367C84.1642 36.0248 84.6776 35.5477 85.331 35.2055C85.9947 34.8632 86.7622 34.6921 87.6334 34.6921C88.515 34.6921 89.2825 34.8632 89.9358 35.2055C90.5996 35.5477 91.113 36.0248 91.476 36.6367C91.839 37.2486 92.0205 37.9643 92.0205 38.7836C92.0205 39.6029 91.8338 40.3289 91.4604 40.9616C91.0974 41.5838 90.5841 42.0713 89.9203 42.4239C89.2669 42.7662 88.5046 42.9373 87.6334 42.9373ZM87.6334 41.1016C87.9964 41.1016 88.3231 41.0082 88.6135 40.8216C88.9143 40.6349 89.1528 40.3704 89.3291 40.0282C89.5054 39.6755 89.5936 39.2555 89.5936 38.768C89.5936 38.0524 89.4017 37.5027 89.018 37.119C88.6446 36.7249 88.1831 36.5278 87.6334 36.5278C87.0837 36.5278 86.617 36.7249 86.2333 37.119C85.8599 37.5131 85.6732 38.0628 85.6732 38.768C85.6732 39.2555 85.7614 39.6755 85.9377 40.0282C86.114 40.3704 86.3474 40.6349 86.6378 40.8216C86.9385 41.0082 87.2704 41.1016 87.6334 41.1016Z" fill="var(--fill-0, black)"/>
<path d="M95.8244 42.9373C95.2644 42.9373 94.7821 42.818 94.3776 42.5795C93.9835 42.3306 93.6827 42.0039 93.4753 41.5994C93.2679 41.1846 93.1642 40.723 93.1642 40.2148V34.8477H95.4977V39.7637C95.4977 40.1993 95.6066 40.526 95.8244 40.7438C96.0422 40.9616 96.3482 41.0705 96.7423 41.0705C97.0949 41.0705 97.406 40.9875 97.6757 40.8216C97.9454 40.6556 98.158 40.4274 98.3135 40.137C98.4795 39.8363 98.5625 39.494 98.5625 39.1103L98.7647 41.0238C98.5054 41.5942 98.1269 42.0557 97.629 42.4084C97.1312 42.761 96.5297 42.9373 95.8244 42.9373ZM98.6091 42.7817V40.9149H98.5625V34.8477H100.896V42.7817H98.6091Z" fill="var(--fill-0, black)"/>
<path d="M108.297 42.9373C107.737 42.9373 107.255 42.818 106.851 42.5795C106.456 42.3306 106.156 42.0039 105.948 41.5994C105.741 41.1846 105.637 40.723 105.637 40.2148V34.8477H107.971V39.7637C107.971 40.1993 108.08 40.526 108.297 40.7438C108.515 40.9616 108.821 41.0705 109.215 41.0705C109.568 41.0705 109.879 40.9875 110.149 40.8216C110.418 40.6556 110.631 40.4274 110.786 40.137C110.952 39.8363 111.035 39.494 111.035 39.1103L111.238 41.0238C110.978 41.5942 110.6 42.0557 110.102 42.4084C109.604 42.761 109.003 42.9373 108.297 42.9373ZM111.082 42.7817V40.9149H111.035V34.8477H113.369V42.7817H111.082Z" fill="var(--fill-0, black)"/>
<path d="M120.079 42.9373C119.322 42.9373 118.715 42.761 118.259 42.4084C117.803 42.0557 117.533 41.5735 117.45 40.9616L117.574 40.946V45.9709H115.241V34.8477H117.528V36.6056L117.388 36.5745C117.502 35.9937 117.813 35.5374 118.321 35.2055C118.829 34.8632 119.457 34.6921 120.204 34.6921C120.919 34.6921 121.536 34.8632 122.055 35.2055C122.584 35.5374 122.988 36.0093 123.268 36.6212C123.559 37.2331 123.704 37.9539 123.704 38.7836C123.704 39.6237 123.554 40.3548 123.253 40.9771C122.952 41.5994 122.532 42.0817 121.993 42.4239C121.453 42.7662 120.815 42.9373 120.079 42.9373ZM119.426 41.0705C119.975 41.0705 120.421 40.8734 120.764 40.4793C121.106 40.0852 121.277 39.5251 121.277 38.7991C121.277 38.0732 121.101 37.5183 120.748 37.1346C120.406 36.7508 119.955 36.5589 119.395 36.5589C118.855 36.5589 118.409 36.756 118.057 37.1501C117.714 37.5338 117.543 38.0887 117.543 38.8147C117.543 39.5407 117.714 40.1007 118.057 40.4949C118.409 40.8786 118.866 41.0705 119.426 41.0705Z" fill="var(--fill-0, black)"/>
<path d="M126.47 38.5191C126.47 38.0317 126.532 37.622 126.656 37.2901C126.791 36.9582 126.962 36.6782 127.17 36.45C127.377 36.2219 127.595 36.0196 127.823 35.8433C128.051 35.667 128.269 35.5011 128.476 35.3455C128.684 35.1899 128.85 35.0188 128.974 34.8321C129.109 34.6351 129.177 34.4069 129.177 34.1476C129.177 33.7535 129.042 33.4579 128.772 33.2609C128.513 33.0534 128.15 32.9497 127.683 32.9497C127.113 32.9497 126.641 33.0845 126.267 33.3542C125.904 33.6239 125.681 34.0128 125.598 34.521H123.312C123.415 33.8261 123.659 33.2246 124.043 32.7164C124.426 32.2082 124.929 31.8141 125.552 31.534C126.174 31.254 126.89 31.114 127.699 31.114C128.487 31.114 129.171 31.2384 129.752 31.4874C130.333 31.7363 130.784 32.0889 131.106 32.5452C131.438 32.9912 131.603 33.515 131.603 34.1165C131.603 34.5417 131.531 34.9099 131.386 35.221C131.251 35.5322 131.075 35.8018 130.857 36.03C130.649 36.2478 130.421 36.45 130.172 36.6367C129.923 36.813 129.69 36.9945 129.472 37.1812C129.265 37.3575 129.088 37.5546 128.943 37.7724C128.808 37.9798 128.741 38.2287 128.741 38.5191H126.47ZM126.33 42.7817V40.2148H128.897V42.7817H126.33Z" fill="var(--fill-0, black)"/>
<path d="M11.9517 154.598L8.79359 143.397H11.2205L13.8341 153.649H13.0718L15.4053 143.397H18.1278L20.4302 153.649H19.6835L22.3126 143.397H24.6306L21.4725 154.598H18.7967L16.4165 144.548H17.0388L14.6275 154.598H11.9517Z" fill="var(--fill-0, black)"/>
<path d="M29.9312 154.598C29.8689 154.369 29.8223 154.126 29.7912 153.866C29.7704 153.607 29.76 153.306 29.76 152.964H29.6978V149.215C29.6978 148.893 29.5889 148.645 29.3711 148.468C29.1637 148.282 28.8526 148.188 28.4377 148.188C28.0436 148.188 27.7273 148.256 27.4887 148.39C27.2606 148.525 27.1102 148.722 27.0376 148.982H24.8129C24.9166 148.266 25.2848 147.675 25.9175 147.208C26.5501 146.741 27.4161 146.508 28.5155 146.508C29.6563 146.508 30.5275 146.762 31.1291 147.27C31.7306 147.779 32.0314 148.51 32.0314 149.464V152.964C32.0314 153.223 32.0469 153.488 32.078 153.758C32.1195 154.017 32.1818 154.297 32.2647 154.598H29.9312ZM27.162 154.753C26.3738 154.753 25.7463 154.556 25.2796 154.162C24.8129 153.758 24.5796 153.223 24.5796 152.56C24.5796 151.823 24.8544 151.232 25.4041 150.786C25.9641 150.33 26.742 150.034 27.7376 149.899L30.0556 149.573V150.926L28.1266 151.222C27.7117 151.284 27.4058 151.398 27.2087 151.564C27.0116 151.73 26.9131 151.958 26.9131 152.249C26.9131 152.508 27.0065 152.705 27.1931 152.84C27.3798 152.975 27.6287 153.042 27.9399 153.042C28.4273 153.042 28.8422 152.912 29.1844 152.653C29.5267 152.383 29.6978 152.072 29.6978 151.72L29.9156 152.964C29.6875 153.555 29.34 154.001 28.8733 154.302C28.4066 154.603 27.8362 154.753 27.162 154.753Z" fill="var(--fill-0, black)"/>
<path d="M36.817 154.753C35.6554 154.753 34.7323 154.52 34.0478 154.053C33.3633 153.586 32.99 152.943 32.9277 152.124H35.0124C35.0642 152.477 35.2405 152.746 35.5413 152.933C35.8524 153.109 36.2777 153.198 36.817 153.198C37.3044 153.198 37.6571 153.13 37.8748 152.995C38.103 152.85 38.2171 152.648 38.2171 152.389C38.2171 152.191 38.1497 152.041 38.0149 151.937C37.8904 151.823 37.6571 151.73 37.3148 151.657L36.0391 151.393C35.0953 151.196 34.4005 150.9 33.9545 150.506C33.5085 150.102 33.2855 149.583 33.2855 148.95C33.2855 148.183 33.5811 147.587 34.1723 147.161C34.7634 146.726 35.588 146.508 36.6458 146.508C37.6934 146.508 38.5282 146.721 39.1505 147.146C39.7728 147.561 40.1151 148.142 40.1773 148.888H38.0926C38.0512 148.619 37.906 148.416 37.657 148.282C37.4081 148.136 37.0555 148.064 36.5992 148.064C36.1843 148.064 35.8732 148.126 35.6658 148.25C35.4687 148.364 35.3702 148.53 35.3702 148.748C35.3702 148.935 35.4531 149.085 35.6191 149.199C35.785 149.303 36.0599 149.396 36.4436 149.479L37.8748 149.775C38.6734 149.941 39.275 150.252 39.6795 150.708C40.0943 151.154 40.3017 151.683 40.3017 152.295C40.3017 153.073 39.9958 153.68 39.3839 154.115C38.7823 154.541 37.9267 154.753 36.817 154.753Z" fill="var(--fill-0, black)"/>
<path d="M48.1788 154.769C47.1624 154.769 46.4053 154.525 45.9075 154.038C45.42 153.54 45.1763 152.788 45.1763 151.782V144.89L47.5099 144.019V151.86C47.5099 152.212 47.6084 152.477 47.8054 152.653C48.0025 152.829 48.3084 152.917 48.7233 152.917C48.8789 152.917 49.0241 152.902 49.1589 152.871C49.2937 152.84 49.4286 152.803 49.5634 152.762V154.535C49.4286 154.608 49.2367 154.665 48.9878 154.707C48.7492 154.748 48.4796 154.769 48.1788 154.769ZM43.6984 148.437V146.664H49.5634V148.437H43.6984Z" fill="var(--fill-0, black)"/>
<path d="M50.9619 154.598V143.397H53.2955V154.598H50.9619ZM56.4847 154.598V149.682C56.4847 149.246 56.3706 148.919 56.1424 148.702C55.9246 148.484 55.6031 148.375 55.1779 148.375C54.8149 148.375 54.4882 148.458 54.1978 148.624C53.9178 148.79 53.6948 149.018 53.5288 149.308C53.3733 149.599 53.2955 149.941 53.2955 150.335L53.0932 148.422C53.3525 147.841 53.7311 147.379 54.2289 147.037C54.7371 146.684 55.3594 146.508 56.0957 146.508C56.9773 146.508 57.6514 146.757 58.1181 147.255C58.5849 147.742 58.8182 148.401 58.8182 149.23V154.598H56.4847Z" fill="var(--fill-0, black)"/>
<path d="M64.3276 154.753C63.446 154.753 62.6785 154.582 62.0251 154.24C61.3717 153.887 60.8635 153.4 60.5006 152.777C60.1479 152.155 59.9716 151.44 59.9716 150.631C59.9716 149.811 60.1479 149.096 60.5006 148.484C60.8635 147.861 61.3666 147.379 62.0096 147.037C62.6526 146.684 63.3993 146.508 64.2498 146.508C65.0691 146.508 65.7796 146.674 66.3811 147.006C66.9826 147.338 67.4493 147.799 67.7812 148.39C68.1131 148.982 68.2791 149.676 68.2791 150.475C68.2791 150.641 68.2739 150.797 68.2635 150.942C68.2531 151.077 68.2376 151.206 68.2168 151.331H61.3406V149.791H66.3344L65.9299 150.071C65.9299 149.428 65.7744 148.956 65.4632 148.655C65.1625 148.344 64.7476 148.188 64.2187 148.188C63.6068 148.188 63.1297 148.396 62.7874 148.81C62.4556 149.225 62.2896 149.848 62.2896 150.677C62.2896 151.486 62.4556 152.088 62.7874 152.482C63.1297 152.876 63.6379 153.073 64.312 153.073C64.6854 153.073 65.0069 153.011 65.2766 152.886C65.5462 152.762 65.7485 152.56 65.8833 152.28H68.0768C67.8175 153.047 67.3716 153.654 66.7389 154.1C66.1166 154.535 65.3129 154.753 64.3276 154.753Z" fill="var(--fill-0, black)"/>
<path d="M77.3278 154.753C76.5706 154.753 75.9639 154.577 75.5076 154.224C75.0513 153.872 74.7816 153.389 74.6986 152.777L74.8231 152.762V157.787H72.4895V146.664H74.7764V148.422L74.6364 148.39C74.7505 147.81 75.0616 147.353 75.5698 147.021C76.078 146.679 76.7055 146.508 77.4522 146.508C78.1678 146.508 78.7849 146.679 79.3035 147.021C79.8324 147.353 80.2369 147.825 80.5169 148.437C80.8073 149.049 80.9525 149.77 80.9525 150.6C80.9525 151.44 80.8021 152.171 80.5014 152.793C80.2006 153.415 79.7806 153.898 79.2413 154.24C78.702 154.582 78.0641 154.753 77.3278 154.753ZM76.6744 152.886C77.224 152.886 77.67 152.689 78.0123 152.295C78.3545 151.901 78.5256 151.341 78.5256 150.615C78.5256 149.889 78.3493 149.334 77.9967 148.95C77.6545 148.567 77.2033 148.375 76.6433 148.375C76.1039 148.375 75.658 148.572 75.3053 148.966C74.9631 149.35 74.792 149.905 74.792 150.631C74.792 151.357 74.9631 151.917 75.3053 152.311C75.658 152.695 76.1143 152.886 76.6744 152.886Z" fill="var(--fill-0, black)"/>
<path d="M82.2582 154.598V146.664H84.5451V148.53H84.5918V154.598H82.2582ZM84.5918 150.459L84.3895 148.577C84.5762 147.903 84.8822 147.39 85.3074 147.037C85.7326 146.684 86.2616 146.508 86.8942 146.508C87.0913 146.508 87.2365 146.529 87.3298 146.57V148.748C87.278 148.727 87.2054 148.717 87.112 148.717C87.0187 148.707 86.9046 148.702 86.7698 148.702C86.023 148.702 85.4733 148.836 85.1207 149.106C84.7681 149.365 84.5918 149.816 84.5918 150.459Z" fill="var(--fill-0, black)"/>
<path d="M88.3352 154.598V146.664H90.6687V154.598H88.3352ZM88.2574 145.606V143.085H90.7465V145.606H88.2574Z" fill="var(--fill-0, black)"/>
<path d="M96.0916 154.753C95.2619 154.753 94.5307 154.577 93.898 154.224C93.2654 153.872 92.7675 153.384 92.4046 152.762C92.0519 152.14 91.8756 151.429 91.8756 150.631C91.8756 149.832 92.0519 149.122 92.4046 148.499C92.7675 147.877 93.2654 147.39 93.898 147.037C94.5307 146.684 95.2619 146.508 96.0916 146.508C96.7864 146.508 97.4087 146.638 97.9584 146.897C98.5185 147.146 98.9748 147.493 99.3274 147.939C99.6904 148.385 99.9238 148.909 100.027 149.511H97.7717C97.6576 149.127 97.4502 148.836 97.1494 148.639C96.859 148.442 96.5168 148.344 96.1227 148.344C95.7493 148.344 95.4226 148.437 95.1426 148.624C94.8729 148.81 94.6655 149.075 94.5203 149.417C94.3751 149.759 94.3025 150.164 94.3025 150.631C94.3025 151.097 94.3751 151.502 94.5203 151.844C94.6655 152.186 94.8729 152.451 95.1426 152.637C95.4226 152.824 95.7493 152.917 96.1227 152.917C96.5168 152.917 96.859 152.819 97.1494 152.622C97.4502 152.425 97.6576 152.134 97.7717 151.751H100.027C99.9238 152.352 99.6904 152.876 99.3274 153.322C98.9748 153.768 98.5185 154.121 97.9584 154.38C97.4087 154.629 96.7864 154.753 96.0916 154.753Z" fill="var(--fill-0, black)"/>
<path d="M104.922 154.753C104.04 154.753 103.273 154.582 102.619 154.24C101.966 153.887 101.458 153.4 101.095 152.777C100.742 152.155 100.566 151.44 100.566 150.631C100.566 149.811 100.742 149.096 101.095 148.484C101.458 147.861 101.961 147.379 102.604 147.037C103.247 146.684 103.993 146.508 104.844 146.508C105.663 146.508 106.374 146.674 106.975 147.006C107.577 147.338 108.043 147.799 108.375 148.39C108.707 148.982 108.873 149.676 108.873 150.475C108.873 150.641 108.868 150.797 108.858 150.942C108.847 151.077 108.832 151.206 108.811 151.331H101.935V149.791H106.928L106.524 150.071C106.524 149.428 106.368 148.956 106.057 148.655C105.757 148.344 105.342 148.188 104.813 148.188C104.201 148.188 103.724 148.396 103.381 148.81C103.05 149.225 102.884 149.848 102.884 150.677C102.884 151.486 103.05 152.088 103.381 152.482C103.724 152.876 104.232 153.073 104.906 153.073C105.279 153.073 105.601 153.011 105.871 152.886C106.14 152.762 106.342 152.56 106.477 152.28H108.671C108.412 153.047 107.966 153.654 107.333 154.1C106.711 154.535 105.907 154.753 104.922 154.753Z" fill="var(--fill-0, black)"/>
<path d="M113.69 154.598V146.135C113.69 145.18 113.95 144.46 114.468 143.972C114.987 143.485 115.754 143.241 116.771 143.241C116.988 143.241 117.175 143.251 117.331 143.272C117.497 143.293 117.657 143.329 117.813 143.381V145.17C117.74 145.139 117.652 145.118 117.548 145.108C117.445 145.087 117.32 145.077 117.175 145.077C116.781 145.077 116.491 145.17 116.304 145.357C116.117 145.543 116.024 145.813 116.024 146.166V154.598H113.69ZM112.368 148.437V146.664H117.642V148.437H112.368Z" fill="var(--fill-0, black)"/>
<path d="M123.471 154.598C123.408 154.369 123.362 154.126 123.331 153.866C123.31 153.607 123.3 153.306 123.3 152.964H123.237V149.215C123.237 148.893 123.128 148.645 122.911 148.468C122.703 148.282 122.392 148.188 121.977 148.188C121.583 148.188 121.267 148.256 121.028 148.39C120.8 148.525 120.65 148.722 120.577 148.982H118.352C118.456 148.266 118.824 147.675 119.457 147.208C120.09 146.741 120.956 146.508 122.055 146.508C123.196 146.508 124.067 146.762 124.669 147.27C125.27 147.779 125.571 148.51 125.571 149.464V152.964C125.571 153.223 125.586 153.488 125.618 153.758C125.659 154.017 125.721 154.297 125.804 154.598H123.471ZM120.702 154.753C119.913 154.753 119.286 154.556 118.819 154.162C118.352 153.758 118.119 153.223 118.119 152.56C118.119 151.823 118.394 151.232 118.944 150.786C119.504 150.33 120.281 150.034 121.277 149.899L123.595 149.573V150.926L121.666 151.222C121.251 151.284 120.945 151.398 120.748 151.564C120.551 151.73 120.453 151.958 120.453 152.249C120.453 152.508 120.546 152.705 120.733 152.84C120.919 152.975 121.168 153.042 121.479 153.042C121.967 153.042 122.382 152.912 122.724 152.653C123.066 152.383 123.237 152.072 123.237 151.72L123.455 152.964C123.227 153.555 122.879 154.001 122.413 154.302C121.946 154.603 121.376 154.753 120.702 154.753Z" fill="var(--fill-0, black)"/>
<path d="M127.03 154.598V146.664H129.364V154.598H127.03ZM126.952 145.606V143.085H129.442V145.606H126.952Z" fill="var(--fill-0, black)"/>
<path d="M131.223 154.598V146.664H133.51V148.53H133.557V154.598H131.223ZM133.557 150.459L133.355 148.577C133.541 147.903 133.847 147.39 134.272 147.037C134.698 146.684 135.227 146.508 135.859 146.508C136.056 146.508 136.202 146.529 136.295 146.57V148.748C136.243 148.727 136.17 148.717 136.077 148.717C135.984 148.707 135.87 148.702 135.735 148.702C134.988 148.702 134.438 148.836 134.086 149.106C133.733 149.365 133.557 149.816 133.557 150.459Z" fill="var(--fill-0, black)"/>
<path d="M140.052 150.335C140.052 149.848 140.114 149.438 140.238 149.106C140.373 148.774 140.544 148.494 140.752 148.266C140.959 148.038 141.177 147.836 141.405 147.659C141.633 147.483 141.851 147.317 142.058 147.161C142.266 147.006 142.432 146.835 142.556 146.648C142.691 146.451 142.759 146.223 142.759 145.964C142.759 145.569 142.624 145.274 142.354 145.077C142.095 144.869 141.732 144.766 141.265 144.766C140.695 144.766 140.223 144.9 139.849 145.17C139.486 145.44 139.263 145.829 139.18 146.337H136.894C136.997 145.642 137.241 145.04 137.625 144.532C138.008 144.024 138.511 143.63 139.134 143.35C139.756 143.07 140.472 142.93 141.281 142.93C142.069 142.93 142.753 143.054 143.334 143.303C143.915 143.552 144.366 143.905 144.688 144.361C145.019 144.807 145.185 145.331 145.185 145.932C145.185 146.358 145.113 146.726 144.968 147.037C144.833 147.348 144.657 147.618 144.439 147.846C144.231 148.064 144.003 148.266 143.754 148.453C143.505 148.629 143.272 148.81 143.054 148.997C142.847 149.173 142.67 149.37 142.525 149.588C142.39 149.796 142.323 150.045 142.323 150.335H140.052ZM139.912 154.598V152.031H142.479V154.598H139.912Z" fill="var(--fill-0, black)"/>
<path d="M116.677 247.94C116.677 242.838 120.813 238.703 125.914 238.703H212.936C218.038 238.703 222.173 242.838 222.173 247.94V262.524C222.173 267.626 218.038 271.761 212.936 271.761H125.914C120.813 271.761 116.677 267.626 116.677 262.524V247.94Z" fill="var(--fill-0, black)"/>
<path d="M152.801 260.199C151.712 260.199 150.841 259.957 150.187 259.475C149.534 258.985 149.153 258.297 149.044 257.41H150.771C150.825 257.861 151.043 258.219 151.424 258.483C151.805 258.74 152.291 258.868 152.883 258.868C153.365 258.868 153.734 258.783 153.991 258.612C154.255 258.441 154.388 258.211 154.388 257.923C154.388 257.651 154.31 257.433 154.154 257.27C153.999 257.099 153.73 256.963 153.349 256.862L151.786 256.43C150.985 256.204 150.397 255.897 150.024 255.508C149.658 255.111 149.476 254.617 149.476 254.026C149.476 253.521 149.604 253.085 149.861 252.72C150.125 252.346 150.495 252.062 150.969 251.868C151.443 251.666 152 251.564 152.637 251.564C153.618 251.564 154.399 251.798 154.983 252.264C155.566 252.723 155.897 253.334 155.974 254.096H154.248C154.17 253.684 153.979 253.381 153.676 253.186C153.38 252.992 152.999 252.895 152.532 252.895C152.128 252.895 151.805 252.972 151.564 253.128C151.323 253.283 151.202 253.493 151.202 253.758C151.202 253.96 151.268 254.147 151.401 254.318C151.533 254.481 151.809 254.621 152.229 254.738L153.793 255.17C154.617 255.395 155.208 255.706 155.566 256.103C155.932 256.492 156.114 256.986 156.114 257.585C156.114 258.425 155.823 259.071 155.239 259.522C154.656 259.973 153.843 260.199 152.801 260.199Z" fill="white"/>
<path d="M158.978 260.21C158.558 260.21 158.196 260.121 157.893 259.942C157.597 259.755 157.371 259.51 157.216 259.207C157.06 258.896 156.982 258.549 156.982 258.168V254.143H158.733V257.83C158.733 258.157 158.814 258.402 158.978 258.565C159.141 258.728 159.37 258.81 159.666 258.81C159.93 258.81 160.164 258.748 160.366 258.623C160.568 258.499 160.728 258.328 160.844 258.11C160.969 257.884 161.031 257.628 161.031 257.34L161.183 258.775C160.988 259.203 160.704 259.549 160.331 259.814C159.958 260.078 159.507 260.21 158.978 260.21ZM161.066 260.094V258.693H161.031V254.143H162.781V260.094H161.066Z" fill="white"/>
<path d="M167.814 260.21C167.246 260.21 166.783 260.078 166.425 259.814C166.075 259.549 165.869 259.187 165.807 258.728L165.9 258.717V260.094H164.185V251.693H165.935V255.461L165.83 255.438C165.916 255.003 166.142 254.66 166.507 254.411C166.881 254.155 167.347 254.026 167.907 254.026C168.444 254.026 168.907 254.155 169.296 254.411C169.692 254.66 169.996 255.014 170.206 255.473C170.424 255.932 170.533 256.473 170.533 257.095C170.533 257.725 170.42 258.273 170.194 258.74C169.969 259.207 169.654 259.568 169.249 259.825C168.845 260.082 168.366 260.21 167.814 260.21ZM167.324 258.81C167.736 258.81 168.071 258.662 168.327 258.367C168.584 258.071 168.712 257.651 168.712 257.107C168.712 256.562 168.58 256.146 168.316 255.858C168.059 255.57 167.721 255.426 167.301 255.426C166.896 255.426 166.562 255.574 166.297 255.87C166.04 256.158 165.912 256.574 165.912 257.118C165.912 257.663 166.04 258.083 166.297 258.378C166.562 258.666 166.904 258.81 167.324 258.81Z" fill="white"/>
<path d="M171.512 260.094V254.143H173.227V255.543H173.262V260.094H171.512ZM175.514 260.094V256.313C175.514 256.01 175.432 255.788 175.269 255.648C175.113 255.5 174.892 255.426 174.604 255.426C174.355 255.426 174.125 255.485 173.915 255.601C173.713 255.71 173.554 255.87 173.437 256.08C173.32 256.282 173.262 256.523 173.262 256.803L173.11 255.461C173.305 255.026 173.585 254.68 173.95 254.423C174.324 254.159 174.771 254.026 175.292 254.026C175.914 254.026 176.397 254.201 176.739 254.551C177.089 254.901 177.264 255.341 177.264 255.87V260.094H175.514ZM179.516 260.094V256.313C179.516 256.01 179.434 255.788 179.271 255.648C179.115 255.5 178.894 255.426 178.606 255.426C178.357 255.426 178.127 255.485 177.917 255.601C177.715 255.71 177.556 255.87 177.439 256.08C177.322 256.282 177.264 256.523 177.264 256.803L176.996 255.461C177.19 255.026 177.478 254.68 177.859 254.423C178.248 254.159 178.715 254.026 179.259 254.026C179.905 254.026 180.399 254.209 180.741 254.575C181.091 254.933 181.266 255.403 181.266 255.986V260.094H179.516Z" fill="white"/>
<path d="M182.53 260.094V254.143H184.28V260.094H182.53ZM182.472 253.35V251.459H184.339V253.35H182.472Z" fill="white"/>
<path d="M188.407 260.222C187.645 260.222 187.077 260.039 186.704 259.673C186.338 259.3 186.155 258.736 186.155 257.982V252.813L187.906 252.159V258.04C187.906 258.304 187.98 258.503 188.127 258.635C188.275 258.767 188.505 258.833 188.816 258.833C188.932 258.833 189.041 258.822 189.142 258.798C189.244 258.775 189.345 258.748 189.446 258.717V260.047C189.345 260.101 189.201 260.144 189.014 260.175C188.835 260.206 188.633 260.222 188.407 260.222ZM185.047 255.473V254.143H189.446V255.473H185.047Z" fill="white"/>
<path d="M27.4853 103.621C26.7593 103.621 26.1785 103.461 25.7429 103.139C25.3073 102.812 25.0532 102.353 24.9806 101.762H26.1319C26.1682 102.063 26.3134 102.302 26.5675 102.478C26.8216 102.649 27.1457 102.735 27.5398 102.735C27.8613 102.735 28.1076 102.677 28.2787 102.563C28.455 102.449 28.5432 102.296 28.5432 102.104C28.5432 101.923 28.4913 101.778 28.3876 101.669C28.2839 101.555 28.105 101.464 27.8509 101.397L26.8086 101.109C26.2745 100.958 25.883 100.754 25.634 100.494C25.3903 100.23 25.2685 99.9005 25.2685 99.5064C25.2685 99.1694 25.354 98.879 25.5251 98.6352C25.7015 98.3863 25.9478 98.1971 26.2641 98.0674C26.5804 97.9326 26.9512 97.8652 27.3764 97.8652C28.0298 97.8652 28.551 98.0207 28.9399 98.3319C29.3288 98.6378 29.5492 99.0449 29.6011 99.5531H28.4499C28.398 99.2783 28.271 99.076 28.0687 98.9464C27.8717 98.8167 27.6176 98.7519 27.3064 98.7519C27.0368 98.7519 26.8216 98.8038 26.6608 98.9075C26.5 99.0112 26.4197 99.1512 26.4197 99.3275C26.4197 99.4624 26.4637 99.5868 26.5519 99.7009C26.6401 99.8098 26.8242 99.9031 27.1042 99.9809L28.1465 100.269C28.6962 100.419 29.0903 100.627 29.3288 100.891C29.5726 101.15 29.6944 101.48 29.6944 101.879C29.6944 102.439 29.5 102.869 29.111 103.17C28.7221 103.471 28.1802 103.621 27.4853 103.621Z" fill="var(--fill-0, black)"/>
<path d="M32.1793 103.637C31.6712 103.637 31.2926 103.515 31.0437 103.271C30.8 103.022 30.6781 102.646 30.6781 102.143V98.6975L31.8449 98.2619V102.182C31.8449 102.359 31.8941 102.491 31.9927 102.579C32.0912 102.667 32.2442 102.711 32.4516 102.711C32.5294 102.711 32.602 102.703 32.6694 102.688C32.7368 102.672 32.8042 102.654 32.8716 102.633V103.52C32.8042 103.556 32.7083 103.585 32.5838 103.606C32.4646 103.626 32.3297 103.637 32.1793 103.637ZM29.9391 100.471V99.5842H32.8716V100.471H29.9391Z" fill="var(--fill-0, black)"/>
<path d="M33.5329 103.551V99.5842H34.6997V103.551H33.5329ZM33.494 99.0553V97.7952H34.7386V99.0553H33.494Z" fill="var(--fill-0, black)"/>
<path d="M35.6295 103.551V97.9507H36.7962V103.551H35.6295Z" fill="var(--fill-0, black)"/>
<path d="M37.726 103.551V97.9507H38.8928V103.551H37.726Z" fill="var(--fill-0, black)"/>
<path d="M41.226 103.551V97.9507H42.4239V103.551H41.226ZM44.8508 103.551V97.9507H46.0487V103.551H44.8508ZM41.7861 100.175H45.3953V101.093H41.7861V100.175Z" fill="var(--fill-0, black)"/>
<path d="M48.1857 103.629C47.9056 103.629 47.6645 103.569 47.4623 103.45C47.2652 103.326 47.1148 103.162 47.0111 102.96C46.9074 102.753 46.8555 102.522 46.8555 102.268V99.5842H48.0223V102.042C48.0223 102.26 48.0768 102.423 48.1857 102.532C48.2946 102.641 48.4475 102.696 48.6446 102.696C48.8209 102.696 48.9765 102.654 49.1113 102.571C49.2461 102.488 49.3524 102.374 49.4302 102.229C49.5132 102.079 49.5547 101.907 49.5547 101.716L49.6558 102.672C49.5262 102.957 49.3369 103.188 49.088 103.365C48.8391 103.541 48.5383 103.629 48.1857 103.629ZM49.578 103.551V102.618H49.5547V99.5842H50.7215V103.551H49.578Z" fill="var(--fill-0, black)"/>
<path d="M51.6574 103.551V99.5842H52.8009V100.518H52.8242V103.551H51.6574ZM54.4188 103.551V101.093C54.4188 100.875 54.3618 100.712 54.2477 100.603C54.1388 100.494 53.978 100.44 53.7654 100.44C53.5839 100.44 53.4206 100.481 53.2754 100.564C53.1354 100.647 53.0239 100.761 52.9409 100.907C52.8631 101.052 52.8242 101.223 52.8242 101.42L52.7231 100.463C52.8527 100.173 53.042 99.942 53.2909 99.7709C53.545 99.5946 53.8562 99.5064 54.2243 99.5064C54.6651 99.5064 55.0022 99.6309 55.2355 99.8798C55.4689 100.124 55.5856 100.453 55.5856 100.868V103.551H54.4188Z" fill="var(--fill-0, black)"/>
<path d="M58.2862 105.224C57.7365 105.224 57.2879 105.107 56.9405 104.874C56.5982 104.64 56.396 104.324 56.3338 103.925H57.4383C57.4798 104.023 57.568 104.098 57.7028 104.15C57.8428 104.202 58.0191 104.228 58.2317 104.228C58.5844 104.228 58.841 104.161 59.0018 104.026C59.1626 103.891 59.2429 103.681 59.2429 103.396V102.532L59.3052 102.548C59.2533 102.838 59.1029 103.069 58.854 103.24C58.6051 103.406 58.2965 103.489 57.9284 103.489C57.5757 103.489 57.2672 103.409 57.0027 103.248C56.7434 103.082 56.5412 102.851 56.396 102.556C56.2508 102.26 56.1782 101.913 56.1782 101.513C56.1782 101.109 56.2534 100.756 56.4038 100.455C56.5542 100.155 56.7642 99.9213 57.0338 99.7554C57.3087 99.5894 57.6276 99.5064 57.9906 99.5064C58.364 99.5064 58.6673 99.5946 58.9007 99.7709C59.1392 99.9472 59.2792 100.188 59.3207 100.494L59.2663 100.502V99.5842H60.4097V103.38C60.4097 103.951 60.2204 104.399 59.8419 104.726C59.4633 105.058 58.9448 105.224 58.2862 105.224ZM58.3328 102.595C58.6077 102.595 58.8307 102.501 59.0018 102.314C59.1729 102.123 59.2585 101.85 59.2585 101.498C59.2585 101.145 59.1703 100.875 58.994 100.689C58.8229 100.497 58.5973 100.401 58.3173 100.401C58.0476 100.401 57.8246 100.497 57.6483 100.689C57.4772 100.881 57.3916 101.153 57.3916 101.506C57.3916 101.858 57.4772 102.128 57.6483 102.314C57.8246 102.501 58.0528 102.595 58.3328 102.595Z" fill="var(--fill-0, black)"/>
<path d="M61.3426 103.551V99.5842H62.486V100.518H62.5094V103.551H61.3426ZM62.5094 101.482L62.4082 100.541C62.5016 100.204 62.6545 99.9472 62.8672 99.7709C63.0798 99.5946 63.3442 99.5064 63.6606 99.5064C63.7591 99.5064 63.8317 99.5168 63.8784 99.5376V100.627C63.8524 100.616 63.8161 100.611 63.7695 100.611C63.7228 100.606 63.6658 100.603 63.5983 100.603C63.225 100.603 62.9501 100.671 62.7738 100.805C62.5975 100.935 62.5094 101.161 62.5094 101.482Z" fill="var(--fill-0, black)"/>
<path d="M64.7884 105.146L65.8852 102.719L66.0874 102.384L67.1142 99.5842H68.3587L65.9552 105.146H64.7884ZM65.6285 103.473L64.1039 99.5842H65.364L66.6163 103.131L65.6285 103.473Z" fill="var(--fill-0, black)"/>
<path d="M40.7399 209.533V203.933H41.9378V209.533H40.7399ZM41.2999 209.533V208.615H44.9092V209.533H41.2999ZM41.2999 207.122V206.22H44.6369V207.122H41.2999ZM41.2999 204.851V203.933H44.8158V204.851H41.2999Z" fill="var(--fill-0, black)"/>
<path d="M48.2807 209.533L47.1062 207.791L45.4182 205.566H46.725L47.7751 207.13L49.5875 209.533H48.2807ZM47.1995 207.068L48.2496 205.566H49.5253L47.7518 207.884L47.1995 207.068ZM47.6507 207.946L46.5228 209.533H45.2549L47.0984 207.13L47.6507 207.946Z" fill="var(--fill-0, black)"/>
<path d="M52.6637 209.611C52.2851 209.611 51.9817 209.523 51.7536 209.347C51.5254 209.17 51.3906 208.929 51.3491 208.623L51.4113 208.615V211.128H50.2445V205.566H51.388V206.445L51.318 206.43C51.375 206.139 51.5306 205.911 51.7847 205.745C52.0388 205.574 52.3525 205.488 52.7259 205.488C53.0837 205.488 53.3922 205.574 53.6515 205.745C53.916 205.911 54.1182 206.147 54.2583 206.453C54.4034 206.759 54.476 207.119 54.476 207.534C54.476 207.954 54.4009 208.32 54.2505 208.631C54.1001 208.942 53.8901 209.183 53.6204 209.354C53.3508 209.526 53.0318 209.611 52.6637 209.611ZM52.337 208.678C52.6118 208.678 52.8348 208.579 53.0059 208.382C53.177 208.185 53.2626 207.905 53.2626 207.542C53.2626 207.179 53.1744 206.902 52.9981 206.71C52.827 206.518 52.6014 206.422 52.3214 206.422C52.0517 206.422 51.8288 206.52 51.6525 206.717C51.4813 206.909 51.3958 207.187 51.3958 207.55C51.3958 207.913 51.4813 208.193 51.6525 208.39C51.8288 208.582 52.0569 208.678 52.337 208.678Z" fill="var(--fill-0, black)"/>
<path d="M57.0717 209.611C56.6309 209.611 56.2472 209.526 55.9205 209.354C55.5938 209.178 55.3397 208.934 55.1582 208.623C54.9819 208.312 54.8937 207.954 54.8937 207.55C54.8937 207.14 54.9819 206.782 55.1582 206.476C55.3397 206.165 55.5912 205.924 55.9127 205.753C56.2342 205.577 56.6076 205.488 57.0328 205.488C57.4425 205.488 57.7977 205.571 58.0985 205.737C58.3992 205.903 58.6326 206.134 58.7985 206.43C58.9645 206.725 59.0474 207.073 59.0474 207.472C59.0474 207.555 59.0448 207.633 59.0397 207.705C59.0345 207.773 59.0267 207.838 59.0163 207.9H55.5782V207.13H58.0751L57.8729 207.27C57.8729 206.948 57.7951 206.712 57.6395 206.562C57.4891 206.406 57.2817 206.329 57.0172 206.329C56.7113 206.329 56.4728 206.432 56.3016 206.64C56.1357 206.847 56.0527 207.158 56.0527 207.573C56.0527 207.978 56.1357 208.278 56.3016 208.475C56.4728 208.672 56.7268 208.771 57.0639 208.771C57.2506 208.771 57.4114 208.74 57.5462 208.678C57.681 208.615 57.7821 208.514 57.8495 208.374H58.9463C58.8167 208.758 58.5937 209.061 58.2774 209.284C57.9662 209.502 57.5643 209.611 57.0717 209.611Z" fill="var(--fill-0, black)"/>
<path d="M59.6714 209.533V205.566H60.8149V206.5H60.8382V209.533H59.6714ZM62.4328 209.533V207.075C62.4328 206.857 62.3757 206.694 62.2617 206.585C62.1528 206.476 61.992 206.422 61.7794 206.422C61.5979 206.422 61.4345 206.463 61.2893 206.546C61.1493 206.629 61.0378 206.743 60.9549 206.889C60.8771 207.034 60.8382 207.205 60.8382 207.402L60.7371 206.445C60.8667 206.155 61.056 205.924 61.3049 205.753C61.559 205.577 61.8701 205.488 62.2383 205.488C62.6791 205.488 63.0162 205.613 63.2495 205.862C63.4829 206.106 63.5996 206.435 63.5996 206.85V209.533H62.4328Z" fill="var(--fill-0, black)"/>
<path d="M66.0746 209.611C65.4938 209.611 65.0323 209.494 64.69 209.261C64.3478 209.028 64.1611 208.706 64.13 208.297H65.1723C65.1982 208.473 65.2864 208.608 65.4367 208.701C65.5923 208.789 65.8049 208.833 66.0746 208.833C66.3183 208.833 66.4946 208.8 66.6035 208.732C66.7176 208.66 66.7746 208.558 66.7746 208.429C66.7746 208.33 66.7409 208.255 66.6735 208.203C66.6113 208.146 66.4946 208.099 66.3235 208.063L65.6857 207.931C65.2138 207.832 64.8663 207.685 64.6433 207.488C64.4203 207.285 64.3089 207.026 64.3089 206.71C64.3089 206.326 64.4566 206.028 64.7522 205.815C65.0478 205.597 65.4601 205.488 65.989 205.488C66.5128 205.488 66.9302 205.595 67.2414 205.807C67.5525 206.015 67.7236 206.305 67.7547 206.679H66.7124C66.6917 206.544 66.6191 206.443 66.4946 206.375C66.3702 206.303 66.1938 206.266 65.9657 206.266C65.7583 206.266 65.6027 206.297 65.499 206.36C65.4004 206.417 65.3512 206.5 65.3512 206.609C65.3512 206.702 65.3927 206.777 65.4756 206.834C65.5586 206.886 65.696 206.933 65.8879 206.974L66.6035 207.122C67.0028 207.205 67.3036 207.361 67.5058 207.589C67.7132 207.812 67.817 208.076 67.817 208.382C67.817 208.771 67.664 209.074 67.358 209.292C67.0573 209.505 66.6294 209.611 66.0746 209.611Z" fill="var(--fill-0, black)"/>
<path d="M68.3918 209.533V205.566H69.5586V209.533H68.3918ZM68.353 205.037V203.777H69.5975V205.037H68.353Z" fill="var(--fill-0, black)"/>
<path d="M71.5012 209.533L69.9378 205.566H71.1901L72.4113 209.269H71.7579L72.9714 205.566H74.1926L72.6291 209.533H71.5012Z" fill="var(--fill-0, black)"/>
<path d="M76.3888 209.611C75.948 209.611 75.5643 209.526 75.2376 209.354C74.9109 209.178 74.6568 208.934 74.4753 208.623C74.299 208.312 74.2108 207.954 74.2108 207.55C74.2108 207.14 74.299 206.782 74.4753 206.476C74.6568 206.165 74.9083 205.924 75.2298 205.753C75.5513 205.577 75.9247 205.488 76.3499 205.488C76.7596 205.488 77.1148 205.571 77.4156 205.737C77.7163 205.903 77.9497 206.134 78.1156 206.43C78.2816 206.725 78.3645 207.073 78.3645 207.472C78.3645 207.555 78.362 207.633 78.3568 207.705C78.3516 207.773 78.3438 207.838 78.3334 207.9H74.8953V207.13H77.3922L77.19 207.27C77.19 206.948 77.1122 206.712 76.9566 206.562C76.8063 206.406 76.5988 206.329 76.3344 206.329C76.0284 206.329 75.7899 206.432 75.6187 206.64C75.4528 206.847 75.3698 207.158 75.3698 207.573C75.3698 207.978 75.4528 208.278 75.6187 208.475C75.7899 208.672 76.044 208.771 76.381 208.771C76.5677 208.771 76.7285 208.74 76.8633 208.678C76.9981 208.615 77.0992 208.514 77.1667 208.374H78.2634C78.1338 208.758 77.9108 209.061 77.5945 209.284C77.2833 209.502 76.8814 209.611 76.3888 209.611Z" fill="var(--fill-0, black)"/>
<path d="M79.0627 207.402L78.8916 203.777H80.1828L80.0117 207.402H79.0627ZM78.8994 209.533V208.25H80.1828V209.533H78.8994Z" fill="var(--fill-0, black)"/>
<path d="M163.251 209.533V203.933H164.449V209.533H163.251ZM163.811 207.363V206.445H167.024V207.363H163.811ZM163.811 204.851V203.933H167.203V204.851H163.811Z" fill="var(--fill-0, black)"/>
<path d="M170.08 209.533C170.049 209.419 170.025 209.297 170.01 209.168C169.999 209.038 169.994 208.888 169.994 208.717H169.963V206.842C169.963 206.681 169.909 206.557 169.8 206.469C169.696 206.375 169.54 206.329 169.333 206.329C169.136 206.329 168.978 206.362 168.859 206.43C168.744 206.497 168.669 206.596 168.633 206.725H167.521C167.573 206.367 167.757 206.072 168.073 205.839C168.389 205.605 168.822 205.488 169.372 205.488C169.942 205.488 170.378 205.616 170.679 205.87C170.98 206.124 171.13 206.489 171.13 206.966V208.717C171.13 208.846 171.138 208.978 171.153 209.113C171.174 209.243 171.205 209.383 171.247 209.533H170.08ZM168.695 209.611C168.301 209.611 167.987 209.513 167.754 209.315C167.521 209.113 167.404 208.846 167.404 208.514C167.404 208.146 167.541 207.851 167.816 207.628C168.096 207.399 168.485 207.252 168.983 207.184L170.142 207.021V207.698L169.177 207.845C168.97 207.876 168.817 207.934 168.719 208.016C168.62 208.099 168.571 208.214 168.571 208.359C168.571 208.488 168.617 208.587 168.711 208.654C168.804 208.722 168.929 208.755 169.084 208.755C169.328 208.755 169.535 208.691 169.706 208.561C169.878 208.426 169.963 208.271 169.963 208.094L170.072 208.717C169.958 209.012 169.784 209.235 169.551 209.386C169.317 209.536 169.032 209.611 168.695 209.611Z" fill="var(--fill-0, black)"/>
<path d="M171.86 209.533V205.566H173.026V209.533H171.86ZM171.821 205.037V203.777H173.065V205.037H171.821Z" fill="var(--fill-0, black)"/>
<path d="M173.956 209.533V205.566H175.1V206.5H175.123V209.533H173.956ZM175.123 207.464L175.022 206.523C175.115 206.186 175.268 205.929 175.481 205.753C175.693 205.577 175.958 205.488 176.274 205.488C176.373 205.488 176.445 205.499 176.492 205.52V206.609C176.466 206.598 176.43 206.593 176.383 206.593C176.336 206.588 176.279 206.585 176.212 206.585C175.838 206.585 175.564 206.653 175.387 206.787C175.211 206.917 175.123 207.143 175.123 207.464Z" fill="var(--fill-0, black)"/>
<path d="M268.483 209.611C268.078 209.611 267.705 209.541 267.363 209.401C267.02 209.256 266.722 209.054 266.468 208.794C266.219 208.535 266.025 208.229 265.885 207.876C265.745 207.519 265.675 207.13 265.675 206.71C265.675 206.29 265.742 205.906 265.877 205.558C266.017 205.211 266.211 204.91 266.46 204.656C266.714 204.397 267.013 204.2 267.355 204.065C267.697 203.925 268.073 203.855 268.483 203.855C268.944 203.855 269.359 203.946 269.727 204.127C270.101 204.304 270.404 204.555 270.637 204.882C270.876 205.203 271.021 205.582 271.073 206.017H269.906C269.839 205.618 269.675 205.317 269.416 205.115C269.157 204.908 268.848 204.804 268.49 204.804C268.174 204.804 267.894 204.879 267.65 205.03C267.412 205.18 267.225 205.398 267.09 205.683C266.955 205.963 266.888 206.303 266.888 206.702C266.888 207.106 266.955 207.456 267.09 207.752C267.23 208.042 267.422 208.268 267.666 208.429C267.91 208.584 268.19 208.662 268.506 208.662C268.843 208.662 269.141 208.561 269.401 208.359C269.66 208.157 269.828 207.856 269.906 207.456H271.088C271.021 207.892 270.868 208.273 270.63 208.6C270.391 208.921 270.088 209.17 269.719 209.347C269.351 209.523 268.939 209.611 268.483 209.611Z" fill="var(--fill-0, black)"/>
<path d="M271.742 209.533V203.933H272.909V209.533H271.742ZM274.503 209.533V207.075C274.503 206.857 274.446 206.694 274.332 206.585C274.223 206.476 274.062 206.422 273.85 206.422C273.668 206.422 273.505 206.463 273.36 206.546C273.22 206.629 273.108 206.743 273.025 206.889C272.948 207.034 272.909 207.205 272.909 207.402L272.807 206.445C272.937 206.155 273.126 205.924 273.375 205.753C273.629 205.577 273.941 205.488 274.309 205.488C274.75 205.488 275.087 205.613 275.32 205.862C275.553 206.106 275.67 206.435 275.67 206.85V209.533H274.503Z" fill="var(--fill-0, black)"/>
<path d="M278.425 209.611C277.984 209.611 277.6 209.526 277.273 209.354C276.947 209.178 276.693 208.934 276.511 208.623C276.335 208.312 276.247 207.954 276.247 207.55C276.247 207.14 276.335 206.782 276.511 206.476C276.693 206.165 276.944 205.924 277.266 205.753C277.587 205.577 277.961 205.488 278.386 205.488C278.795 205.488 279.151 205.571 279.451 205.737C279.752 205.903 279.986 206.134 280.151 206.43C280.317 206.725 280.4 207.073 280.4 207.472C280.4 207.555 280.398 207.633 280.393 207.705C280.387 207.773 280.38 207.838 280.369 207.9H276.931V207.13H279.428L279.226 207.27C279.226 206.948 279.148 206.712 278.993 206.562C278.842 206.406 278.635 206.329 278.37 206.329C278.064 206.329 277.826 206.432 277.655 206.64C277.489 206.847 277.406 207.158 277.406 207.573C277.406 207.978 277.489 208.278 277.655 208.475C277.826 208.672 278.08 208.771 278.417 208.771C278.604 208.771 278.764 208.74 278.899 208.678C279.034 208.615 279.135 208.514 279.203 208.374H280.299C280.17 208.758 279.947 209.061 279.63 209.284C279.319 209.502 278.917 209.611 278.425 209.611Z" fill="var(--fill-0, black)"/>
<path d="M283.438 209.533C283.407 209.419 283.383 209.297 283.368 209.168C283.357 209.038 283.352 208.888 283.352 208.717H283.321V206.842C283.321 206.681 283.267 206.557 283.158 206.469C283.054 206.375 282.898 206.329 282.691 206.329C282.494 206.329 282.336 206.362 282.217 206.43C282.102 206.497 282.027 206.596 281.991 206.725H280.879C280.93 206.367 281.115 206.072 281.431 205.839C281.747 205.605 282.18 205.488 282.73 205.488C283.3 205.488 283.736 205.616 284.037 205.87C284.337 206.124 284.488 206.489 284.488 206.966V208.717C284.488 208.846 284.496 208.978 284.511 209.113C284.532 209.243 284.563 209.383 284.604 209.533H283.438ZM282.053 209.611C281.659 209.611 281.345 209.513 281.112 209.315C280.879 209.113 280.762 208.846 280.762 208.514C280.762 208.146 280.899 207.851 281.174 207.628C281.454 207.399 281.843 207.252 282.341 207.184L283.5 207.021V207.698L282.535 207.845C282.328 207.876 282.175 207.934 282.077 208.016C281.978 208.099 281.929 208.214 281.929 208.359C281.929 208.488 281.975 208.587 282.069 208.654C282.162 208.722 282.287 208.755 282.442 208.755C282.686 208.755 282.893 208.691 283.064 208.561C283.235 208.426 283.321 208.271 283.321 208.094L283.43 208.717C283.316 209.012 283.142 209.235 282.909 209.386C282.675 209.536 282.39 209.611 282.053 209.611Z" fill="var(--fill-0, black)"/>
<path d="M287.804 209.611C287.425 209.611 287.122 209.523 286.894 209.347C286.665 209.17 286.531 208.929 286.489 208.623L286.551 208.615V211.128H285.385V205.566H286.528V206.445L286.458 206.43C286.515 206.139 286.671 205.911 286.925 205.745C287.179 205.574 287.493 205.488 287.866 205.488C288.224 205.488 288.532 205.574 288.792 205.745C289.056 205.911 289.258 206.147 289.398 206.453C289.544 206.759 289.616 207.119 289.616 207.534C289.616 207.954 289.541 208.32 289.391 208.631C289.24 208.942 289.03 209.183 288.76 209.354C288.491 209.526 288.172 209.611 287.804 209.611ZM287.477 208.678C287.752 208.678 287.975 208.579 288.146 208.382C288.317 208.185 288.403 207.905 288.403 207.542C288.403 207.179 288.315 206.902 288.138 206.71C287.967 206.518 287.741 206.422 287.461 206.422C287.192 206.422 286.969 206.52 286.793 206.717C286.621 206.909 286.536 207.187 286.536 207.55C286.536 207.913 286.621 208.193 286.793 208.39C286.969 208.582 287.197 208.678 287.477 208.678Z" fill="var(--fill-0, black)"/>
<path d="M290.343 207.402L290.172 203.777H291.463L291.292 207.402H290.343ZM290.18 209.533V208.25H291.463V209.533H290.18Z" fill="var(--fill-0, black)"/>
<path d="M114.92 103.551L116.926 97.9507H117.953L116.11 103.551H114.92ZM119.027 103.551L117.191 97.9507H118.264L120.271 103.551H119.027ZM115.977 101.381H119.12V102.314H115.977V101.381Z" fill="var(--fill-0, black)"/>
<path d="M120.927 103.551V97.9507H122.094V103.551H120.927Z" fill="var(--fill-0, black)"/>
<path d="M123.024 103.551V99.5842H124.167V100.518H124.19V103.551H123.024ZM125.692 103.551V101.031C125.692 100.829 125.637 100.681 125.528 100.588C125.425 100.489 125.277 100.44 125.085 100.44C124.919 100.44 124.766 100.479 124.626 100.557C124.491 100.629 124.385 100.735 124.307 100.875C124.229 101.01 124.19 101.171 124.19 101.358L124.089 100.463C124.219 100.173 124.406 99.942 124.649 99.7709C124.898 99.5946 125.196 99.5064 125.544 99.5064C125.959 99.5064 126.28 99.6231 126.508 99.8565C126.742 100.09 126.858 100.383 126.858 100.735V103.551H125.692ZM128.36 103.551V101.031C128.36 100.829 128.305 100.681 128.196 100.588C128.093 100.489 127.945 100.44 127.753 100.44C127.587 100.44 127.434 100.479 127.294 100.557C127.159 100.629 127.053 100.735 126.975 100.875C126.897 101.01 126.858 101.171 126.858 101.358L126.68 100.463C126.809 100.173 127.001 99.942 127.255 99.7709C127.514 99.5946 127.826 99.5064 128.189 99.5064C128.619 99.5064 128.948 99.6283 129.176 99.872C129.41 100.111 129.526 100.424 129.526 100.813V103.551H128.36Z" fill="var(--fill-0, black)"/>
<path d="M132.297 103.629C131.862 103.629 131.478 103.543 131.146 103.372C130.819 103.196 130.563 102.952 130.376 102.641C130.194 102.325 130.104 101.962 130.104 101.552C130.104 101.143 130.194 100.785 130.376 100.479C130.563 100.173 130.819 99.9343 131.146 99.7631C131.478 99.592 131.862 99.5064 132.297 99.5064C132.738 99.5064 133.122 99.592 133.448 99.7631C133.78 99.9343 134.037 100.173 134.218 100.479C134.4 100.785 134.491 101.143 134.491 101.552C134.491 101.962 134.397 102.325 134.211 102.641C134.029 102.952 133.772 103.196 133.441 103.372C133.114 103.543 132.733 103.629 132.297 103.629ZM132.297 102.711C132.479 102.711 132.642 102.665 132.787 102.571C132.938 102.478 133.057 102.346 133.145 102.174C133.233 101.998 133.277 101.788 133.277 101.544C133.277 101.187 133.181 100.912 132.989 100.72C132.803 100.523 132.572 100.424 132.297 100.424C132.022 100.424 131.789 100.523 131.597 100.72C131.41 100.917 131.317 101.192 131.317 101.544C131.317 101.788 131.361 101.998 131.449 102.174C131.537 102.346 131.654 102.478 131.799 102.571C131.95 102.665 132.116 102.711 132.297 102.711Z" fill="var(--fill-0, black)"/>
<path d="M136.734 103.629C136.154 103.629 135.692 103.512 135.35 103.279C135.008 103.046 134.821 102.724 134.79 102.314H135.832C135.858 102.491 135.946 102.626 136.097 102.719C136.252 102.807 136.465 102.851 136.734 102.851C136.978 102.851 137.154 102.817 137.263 102.75C137.377 102.677 137.434 102.576 137.434 102.447C137.434 102.348 137.401 102.273 137.333 102.221C137.271 102.164 137.154 102.117 136.983 102.081L136.345 101.949C135.874 101.85 135.526 101.703 135.303 101.506C135.08 101.303 134.969 101.044 134.969 100.728C134.969 100.344 135.116 100.046 135.412 99.8331C135.708 99.6153 136.12 99.5064 136.649 99.5064C137.173 99.5064 137.59 99.6127 137.901 99.8254C138.212 100.033 138.383 100.323 138.414 100.697H137.372C137.351 100.562 137.279 100.461 137.154 100.393C137.03 100.321 136.854 100.284 136.625 100.284C136.418 100.284 136.262 100.315 136.159 100.378C136.06 100.435 136.011 100.518 136.011 100.627C136.011 100.72 136.052 100.795 136.135 100.852C136.218 100.904 136.356 100.951 136.548 100.992L137.263 101.14C137.663 101.223 137.963 101.378 138.166 101.607C138.373 101.83 138.477 102.094 138.477 102.4C138.477 102.789 138.324 103.092 138.018 103.31C137.717 103.523 137.289 103.629 136.734 103.629Z" fill="var(--fill-0, black)"/>
<path d="M140.919 103.637C140.411 103.637 140.032 103.515 139.783 103.271C139.539 103.022 139.418 102.646 139.418 102.143V98.6975L140.584 98.2619V102.182C140.584 102.359 140.634 102.491 140.732 102.579C140.831 102.667 140.984 102.711 141.191 102.711C141.269 102.711 141.341 102.703 141.409 102.688C141.476 102.672 141.544 102.654 141.611 102.633V103.52C141.544 103.556 141.448 103.585 141.323 103.606C141.204 103.626 141.069 103.637 140.919 103.637ZM138.679 100.471V99.5842H141.611V100.471H138.679Z" fill="var(--fill-0, black)"/>
<path d="M196.796 103.551V97.9507H199.456C199.871 97.9507 200.226 98.0233 200.522 98.1685C200.823 98.3137 201.053 98.516 201.214 98.7753C201.38 99.0345 201.463 99.3379 201.463 99.6853C201.463 100.033 201.38 100.339 201.214 100.603C201.048 100.868 200.815 101.075 200.514 101.225C200.219 101.371 199.866 101.443 199.456 101.443H197.745V100.525H199.394C199.669 100.525 199.881 100.45 200.032 100.3C200.187 100.144 200.265 99.942 200.265 99.6931C200.265 99.4442 200.187 99.2446 200.032 99.0942C199.881 98.9438 199.669 98.8686 199.394 98.8686H197.994V103.551H196.796Z" fill="var(--fill-0, black)"/>
<path d="M203.769 103.629C203.329 103.629 202.945 103.543 202.618 103.372C202.291 103.196 202.037 102.952 201.856 102.641C201.68 102.33 201.591 101.972 201.591 101.568C201.591 101.158 201.68 100.8 201.856 100.494C202.037 100.183 202.289 99.942 202.61 99.7709C202.932 99.5946 203.305 99.5064 203.73 99.5064C204.14 99.5064 204.495 99.5894 204.796 99.7554C205.097 99.9213 205.33 100.152 205.496 100.448C205.662 100.743 205.745 101.091 205.745 101.49C205.745 101.573 205.742 101.651 205.737 101.723C205.732 101.791 205.724 101.856 205.714 101.918H202.276V101.148H204.773L204.571 101.288C204.571 100.966 204.493 100.73 204.337 100.58C204.187 100.424 203.979 100.347 203.715 100.347C203.409 100.347 203.17 100.45 202.999 100.658C202.833 100.865 202.75 101.176 202.75 101.591C202.75 101.996 202.833 102.296 202.999 102.493C203.17 102.69 203.424 102.789 203.762 102.789C203.948 102.789 204.109 102.758 204.244 102.696C204.379 102.633 204.48 102.532 204.547 102.392H205.644C205.514 102.776 205.291 103.079 204.975 103.302C204.664 103.52 204.262 103.629 203.769 103.629Z" fill="var(--fill-0, black)"/>
<path d="M206.369 103.551V99.5842H207.512V100.518H207.536V103.551H206.369ZM207.536 101.482L207.435 100.541C207.528 100.204 207.681 99.9472 207.894 99.7709C208.106 99.5946 208.371 99.5064 208.687 99.5064C208.786 99.5064 208.858 99.5168 208.905 99.5376V100.627C208.879 100.616 208.843 100.611 208.796 100.611C208.749 100.606 208.692 100.603 208.625 100.603C208.251 100.603 207.977 100.671 207.8 100.805C207.624 100.935 207.536 101.161 207.536 101.482Z" fill="var(--fill-0, black)"/>
<path d="M209.87 103.551V99.3198C209.87 98.8427 210 98.4823 210.259 98.2385C210.519 97.9948 210.902 97.873 211.411 97.873C211.519 97.873 211.613 97.8781 211.691 97.8885C211.774 97.8989 211.854 97.917 211.932 97.943V98.8375C211.895 98.8219 211.851 98.8116 211.799 98.8064C211.748 98.796 211.685 98.7908 211.613 98.7908C211.416 98.7908 211.271 98.8375 211.177 98.9308C211.084 99.0242 211.037 99.159 211.037 99.3353V103.551H209.87ZM209.209 100.471V99.5842H211.846V100.471H209.209Z" fill="var(--fill-0, black)"/>
<path d="M214.191 103.629C213.751 103.629 213.367 103.543 213.04 103.372C212.713 103.196 212.459 102.952 212.278 102.641C212.101 102.33 212.013 101.972 212.013 101.568C212.013 101.158 212.101 100.8 212.278 100.494C212.459 100.183 212.711 99.942 213.032 99.7709C213.354 99.5946 213.727 99.5064 214.152 99.5064C214.562 99.5064 214.917 99.5894 215.218 99.7554C215.519 99.9213 215.752 100.152 215.918 100.448C216.084 100.743 216.167 101.091 216.167 101.49C216.167 101.573 216.164 101.651 216.159 101.723C216.154 101.791 216.146 101.856 216.136 101.918H212.698V101.148H215.195L214.992 101.288C214.992 100.966 214.915 100.73 214.759 100.58C214.609 100.424 214.401 100.347 214.137 100.347C213.831 100.347 213.592 100.45 213.421 100.658C213.255 100.865 213.172 101.176 213.172 101.591C213.172 101.996 213.255 102.296 213.421 102.493C213.592 102.69 213.846 102.789 214.184 102.789C214.37 102.789 214.531 102.758 214.666 102.696C214.801 102.633 214.902 102.532 214.969 102.392H216.066C215.936 102.776 215.713 103.079 215.397 103.302C215.086 103.52 214.684 103.629 214.191 103.629Z" fill="var(--fill-0, black)"/>
<path d="M218.664 103.629C218.249 103.629 217.883 103.541 217.567 103.365C217.251 103.188 217.002 102.945 216.82 102.633C216.644 102.322 216.556 101.967 216.556 101.568C216.556 101.168 216.644 100.813 216.82 100.502C217.002 100.191 217.251 99.9472 217.567 99.7709C217.883 99.5946 218.249 99.5064 218.664 99.5064C219.011 99.5064 219.322 99.5713 219.597 99.7009C219.877 99.8254 220.105 99.9991 220.282 100.222C220.463 100.445 220.58 100.707 220.632 101.008H219.504C219.447 100.816 219.343 100.671 219.193 100.572C219.048 100.474 218.876 100.424 218.679 100.424C218.493 100.424 218.329 100.471 218.189 100.564C218.054 100.658 217.951 100.79 217.878 100.961C217.806 101.132 217.769 101.334 217.769 101.568C217.769 101.801 217.806 102.003 217.878 102.174C217.951 102.346 218.054 102.478 218.189 102.571C218.329 102.665 218.493 102.711 218.679 102.711C218.876 102.711 219.048 102.662 219.193 102.563C219.343 102.465 219.447 102.32 219.504 102.128H220.632C220.58 102.429 220.463 102.69 220.282 102.913C220.105 103.136 219.877 103.313 219.597 103.442C219.322 103.567 219.011 103.629 218.664 103.629Z" fill="var(--fill-0, black)"/>
<path d="M223.064 103.637C222.556 103.637 222.177 103.515 221.928 103.271C221.685 103.022 221.563 102.646 221.563 102.143V98.6975L222.73 98.2619V102.182C222.73 102.359 222.779 102.491 222.877 102.579C222.976 102.667 223.129 102.711 223.336 102.711C223.414 102.711 223.487 102.703 223.554 102.688C223.621 102.672 223.689 102.654 223.756 102.633V103.52C223.689 103.556 223.593 103.585 223.468 103.606C223.349 103.626 223.214 103.637 223.064 103.637ZM220.824 100.471V99.5842H223.756V100.471H220.824Z" fill="var(--fill-0, black)"/>
<path d="M280.773 103.621C280.047 103.621 279.466 103.461 279.03 103.139C278.595 102.812 278.341 102.353 278.268 101.762H279.419C279.456 102.063 279.601 102.302 279.855 102.478C280.109 102.649 280.433 102.735 280.827 102.735C281.149 102.735 281.395 102.677 281.566 102.563C281.742 102.449 281.831 102.296 281.831 102.104C281.831 101.923 281.779 101.778 281.675 101.669C281.571 101.555 281.392 101.464 281.138 101.397L280.096 101.109C279.562 100.958 279.17 100.754 278.921 100.494C278.678 100.23 278.556 99.9005 278.556 99.5064C278.556 99.1694 278.641 98.879 278.813 98.6352C278.989 98.3863 279.235 98.1971 279.551 98.0674C279.868 97.9326 280.239 97.8652 280.664 97.8652C281.317 97.8652 281.838 98.0207 282.227 98.3319C282.616 98.6378 282.837 99.0449 282.888 99.5531H281.737C281.685 99.2783 281.558 99.076 281.356 98.9464C281.159 98.8167 280.905 98.7519 280.594 98.7519C280.324 98.7519 280.109 98.8038 279.948 98.9075C279.787 99.0112 279.707 99.1512 279.707 99.3275C279.707 99.4624 279.751 99.5868 279.839 99.7009C279.927 99.8098 280.112 99.9031 280.392 99.9809L281.434 100.269C281.984 100.419 282.378 100.627 282.616 100.891C282.86 101.15 282.982 101.48 282.982 101.879C282.982 102.439 282.787 102.869 282.398 103.17C282.009 103.471 281.468 103.621 280.773 103.621Z" fill="var(--fill-0, black)"/>
<path d="M285.467 103.637C284.958 103.637 284.58 103.515 284.331 103.271C284.087 103.022 283.965 102.646 283.965 102.143V98.6975L285.132 98.2619V102.182C285.132 102.359 285.181 102.491 285.28 102.579C285.379 102.667 285.532 102.711 285.739 102.711C285.817 102.711 285.889 102.703 285.957 102.688C286.024 102.672 286.092 102.654 286.159 102.633V103.52C286.092 103.556 285.996 103.585 285.871 103.606C285.752 103.626 285.617 103.637 285.467 103.637ZM283.226 100.471V99.5842H286.159V100.471H283.226Z" fill="var(--fill-0, black)"/>
<path d="M288.051 103.629C287.771 103.629 287.529 103.569 287.327 103.45C287.13 103.326 286.98 103.162 286.876 102.96C286.772 102.753 286.72 102.522 286.72 102.268V99.5842H287.887V102.042C287.887 102.26 287.942 102.423 288.051 102.532C288.159 102.641 288.312 102.696 288.51 102.696C288.686 102.696 288.841 102.654 288.976 102.571C289.111 102.488 289.217 102.374 289.295 102.229C289.378 102.079 289.42 101.907 289.42 101.716L289.521 102.672C289.391 102.957 289.202 103.188 288.953 103.365C288.704 103.541 288.403 103.629 288.051 103.629ZM289.443 103.551V102.618H289.42V99.5842H290.586V103.551H289.443Z" fill="var(--fill-0, black)"/>
<path d="M291.757 103.551V99.3198C291.757 98.8427 291.887 98.4823 292.146 98.2385C292.406 97.9948 292.789 97.873 293.297 97.873C293.406 97.873 293.5 97.8781 293.577 97.8885C293.66 97.8989 293.741 97.917 293.819 97.943V98.8375C293.782 98.8219 293.738 98.8116 293.686 98.8064C293.635 98.796 293.572 98.7908 293.5 98.7908C293.303 98.7908 293.157 98.8375 293.064 98.9308C292.971 99.0242 292.924 99.159 292.924 99.3353V103.551H291.757ZM291.096 100.471V99.5842H293.733V100.471H291.096Z" fill="var(--fill-0, black)"/>
<path d="M294.72 103.551V99.3198C294.72 98.8427 294.849 98.4823 295.109 98.2385C295.368 97.9948 295.752 97.873 296.26 97.873C296.369 97.873 296.462 97.8781 296.54 97.8885C296.623 97.8989 296.703 97.917 296.781 97.943V98.8375C296.745 98.8219 296.701 98.8116 296.649 98.8064C296.597 98.796 296.535 98.7908 296.462 98.7908C296.265 98.7908 296.12 98.8375 296.027 98.9308C295.933 99.0242 295.887 99.159 295.887 99.3353V103.551H294.72ZM294.059 100.471V99.5842H296.696V100.471H294.059Z" fill="var(--fill-0, black)"/>
<path d="M299.041 103.629C298.6 103.629 298.216 103.543 297.89 103.372C297.563 103.196 297.309 102.952 297.127 102.641C296.951 102.33 296.863 101.972 296.863 101.568C296.863 101.158 296.951 100.8 297.127 100.494C297.309 100.183 297.56 99.942 297.882 99.7709C298.203 99.5946 298.577 99.5064 299.002 99.5064C299.411 99.5064 299.767 99.5894 300.067 99.7554C300.368 99.9213 300.602 100.152 300.768 100.448C300.933 100.743 301.016 101.091 301.016 101.49C301.016 101.573 301.014 101.651 301.009 101.723C301.004 101.791 300.996 101.856 300.985 101.918H297.547V101.148H300.044L299.842 101.288C299.842 100.966 299.764 100.73 299.609 100.58C299.458 100.424 299.251 100.347 298.986 100.347C298.68 100.347 298.442 100.45 298.271 100.658C298.105 100.865 298.022 101.176 298.022 101.591C298.022 101.996 298.105 102.296 298.271 102.493C298.442 102.69 298.696 102.789 299.033 102.789C299.22 102.789 299.38 102.758 299.515 102.696C299.65 102.633 299.751 102.532 299.819 102.392H300.915C300.786 102.776 300.563 103.079 300.246 103.302C299.935 103.52 299.533 103.629 299.041 103.629Z" fill="var(--fill-0, black)"/>
<path d="M304.509 103.551V102.672L304.587 102.688C304.535 102.973 304.38 103.201 304.12 103.372C303.866 103.543 303.56 103.629 303.202 103.629C302.839 103.629 302.523 103.546 302.254 103.38C301.989 103.209 301.784 102.97 301.639 102.665C301.494 102.359 301.421 101.998 301.421 101.583C301.421 101.163 301.496 100.798 301.647 100.487C301.797 100.175 302.007 99.9343 302.277 99.7631C302.552 99.592 302.871 99.5064 303.234 99.5064C303.612 99.5064 303.918 99.5946 304.151 99.7709C304.39 99.9472 304.53 100.188 304.571 100.494L304.486 100.502V97.9507H305.653V103.551H304.509ZM303.576 102.696C303.851 102.696 304.074 102.6 304.245 102.408C304.416 102.211 304.501 101.931 304.501 101.568C304.501 101.205 304.413 100.927 304.237 100.735C304.066 100.538 303.84 100.44 303.56 100.44C303.291 100.44 303.068 100.538 302.891 100.735C302.72 100.932 302.635 101.213 302.635 101.576C302.635 101.939 302.72 102.216 302.891 102.408C303.068 102.6 303.296 102.696 303.576 102.696Z" fill="var(--fill-0, black)"/>
</g>
</svg>
